#N canvas 134 23 1858 1143 36;
#X obj 583 1018 dac~;
#X obj 885 234 osc~ 550;
#X msg 807 394 \$1 s sadfklj;
#X obj 588 854 *~;
#X obj 793 475 print;
#X text 531 12 first arg is destination second is travel time;
#X obj 743 188 bng 50 250 50 0 empty empty empty 17 7 0 10 -4032 -1
-1;
#X obj 855 759 vline~;
#X obj 542 133 vline~;
#X msg 852 680 0 0 \, 0.2 10 0 \, 0 500 10;
#X msg 544 69 1000 0 \, 100 100 0 \, 1000 100 100 \, 100 50 200;
#X obj 514 347 *~ 500;
#X obj 520 417 +~ 1000;
#X obj 543 236 osc~ 10;
#X obj 581 593 phasor~ 100;
#N canvas 0 22 450 278 (subpatch) 0;
#X array array2 8 float 3;
#A 0 437.5 321.786 440.715 598.215 617.501 633.572 665.715 511.429
;
#X coords 0 100 8 1000 400 280 1 0 1;
#X restore 1173 281 graph;
#X obj 86 259 tgl 32 0 empty empty empty 17 7 0 10 -262144 -1 -1 0
1;
#X floatatom 247 155 5 0 0 0 - - -;
#X obj 221 418 phasor~ 1;
#X obj 174 510 *~ 8;
#X obj 118 313 metro 2000;
#X obj 102 580 tabread~ array2;
#X floatatom 405 274 5 0 0 0 - - -;
#X obj 588 755 lop~;
#X floatatom 658 674 5 0 0 0 - - -;
#X obj 37 37;
#N canvas 541 317 949 781 echo 0;
#X obj 212 262 delread4~ del\$0 500;
#X obj 46 155 delwrite~ del\$0 2000;
#X obj 60 410 outlet~;
#X obj 366 420 *~;
#X obj 430 104 clip 0 1;
#X msg 513 177 \$1 50;
#X obj 396 357 line~;
#X obj 314 45 inlet;
#X obj 624 19 inlet;
#X obj 600 67 clip 20 2000;
#X msg 615 113 \$1 50;
#X obj 684 202 line~;
#X obj 52 33 inlet~;
#X obj 326 473 clip~ -1 1;
#X obj 84 345 hip~ 5;
#X connect 0 0 3 0;
#X connect 0 0 14 0;
#X connect 3 0 13 0;
#X connect 4 0 5 0;
#X connect 5 0 6 0;
#X connect 6 0 3 1;
#X connect 7 0 4 0;
#X connect 8 0 9 0;
#X connect 9 0 10 0;
#X connect 10 0 11 0;
#X connect 11 0 0 0;
#X connect 12 0 1 0;
#X connect 13 0 1 0;
#X connect 14 0 2 0;
#X restore 199 931 pd echo;
#X floatatom 230 831 5 0 0 0 - - -;
#X floatatom 376 823 5 0 0 0 - - -;
#X connect 3 0 26 0;
#X connect 6 0 9 0;
#X connect 6 0 10 0;
#X connect 7 0 3 1;
#X connect 8 0 13 0;
#X connect 8 0 11 0;
#X connect 9 0 7 0;
#X connect 10 0 8 0;
#X connect 11 0 12 0;
#X connect 13 0 11 0;
#X connect 14 0 23 0;
#X connect 16 0 20 0;
#X connect 17 0 20 1;
#X connect 18 0 19 0;
#X connect 19 0 21 0;
#X connect 20 0 9 0;
#X connect 21 0 14 0;
#X connect 22 0 18 0;
#X connect 23 0 3 0;
#X connect 24 0 23 1;
#X connect 26 0 0 0;
#X connect 27 0 26 1;
#X connect 28 0 26 2;
