#N canvas 74 399 495 429 10;
#X obj 54 258 dac~;
#N canvas 483 23 957 807 4voiceMonoChorus 0;
#X obj 64 56 inlet~;
#X obj 68 428 outlet~;
#X obj 87 287 line~;
#X obj 63 384 *~;
#X obj 212 385 *~;
#X obj 220 302 /~ 4;
#X obj 104 154 inlet;
#X msg 101 233 \$1 50;
#X obj 291 207 osc~ 0.1;
#X obj 288 43 inlet;
#X obj 288 260 +~ 10;
#X obj 405 206 osc~ 0.1;
#X obj 502 207 osc~ 0.1;
#X obj 598 203 osc~ 0.1;
#X obj 289 287 delread4~ d1\$0;
#X obj 403 288 delread4~ d1\$0;
#X obj 499 292 delread4~ d1\$0;
#X obj 593 295 delread4~ d1\$0;
#N canvas 479 318 450 300 randomize 0;
#X obj 83 76 t f f b;
#X obj 126 107 random 100;
#X obj 126 137 / 100;
#X obj 98 163 +;
#X obj 81 20 inlet;
#X obj 79 223 outlet;
#X obj 79 185 *;
#X obj 84 51 sqrt;
#X connect 0 0 6 0;
#X connect 0 1 3 0;
#X connect 0 2 1 0;
#X connect 1 0 2 0;
#X connect 2 0 3 1;
#X connect 3 0 6 1;
#X connect 4 0 7 0;
#X connect 6 0 5 0;
#X connect 7 0 0 0;
#X restore 291 103 pd randomize;
#N canvas 479 318 450 300 randomize 0;
#X obj 83 76 t f f b;
#X obj 126 107 random 100;
#X obj 126 137 / 100;
#X obj 98 163 +;
#X obj 81 20 inlet;
#X obj 79 223 outlet;
#X obj 79 185 *;
#X obj 84 51 sqrt;
#X connect 0 0 6 0;
#X connect 0 1 3 0;
#X connect 0 2 1 0;
#X connect 1 0 2 0;
#X connect 2 0 3 1;
#X connect 3 0 6 1;
#X connect 4 0 7 0;
#X connect 6 0 5 0;
#X connect 7 0 0 0;
#X restore 394 107 pd randomize;
#N canvas 479 318 450 300 randomize 0;
#X obj 83 76 t f f b;
#X obj 126 107 random 100;
#X obj 126 137 / 100;
#X obj 98 163 +;
#X obj 81 20 inlet;
#X obj 79 223 outlet;
#X obj 79 185 *;
#X obj 84 51 sqrt;
#X connect 0 0 6 0;
#X connect 0 1 3 0;
#X connect 0 2 1 0;
#X connect 1 0 2 0;
#X connect 2 0 3 1;
#X connect 3 0 6 1;
#X connect 4 0 7 0;
#X connect 6 0 5 0;
#X connect 7 0 0 0;
#X restore 495 103 pd randomize;
#N canvas 479 318 450 300 randomize 0;
#X obj 83 76 t f f b;
#X obj 126 107 random 100;
#X obj 126 137 / 100;
#X obj 98 163 +;
#X obj 81 20 inlet;
#X obj 79 223 outlet;
#X obj 79 185 *;
#X obj 84 51 sqrt;
#X connect 0 0 6 0;
#X connect 0 1 3 0;
#X connect 0 2 1 0;
#X connect 1 0 2 0;
#X connect 2 0 3 1;
#X connect 3 0 6 1;
#X connect 4 0 7 0;
#X connect 6 0 5 0;
#X connect 7 0 0 0;
#X restore 600 104 pd randomize;
#X obj 102 104 delwrite~ d1\$0 1000;
#X obj 83 317 sig~ 1;
#X obj 80 346 -~;
#X obj 499 259 +~ 10;
#X obj 403 259 +~ 13;
#X obj 595 256 +~ 14;
#X obj 291 236 *~ 5;
#X obj 405 235 *~ 5;
#X obj 502 236 *~ 5;
#X obj 598 232 *~ 5;
#X obj 102 199 clip 0 1;
#X connect 0 0 3 0;
#X connect 0 0 22 0;
#X connect 2 0 4 1;
#X connect 2 0 24 1;
#X connect 3 0 1 0;
#X connect 4 0 1 0;
#X connect 5 0 4 0;
#X connect 6 0 32 0;
#X connect 7 0 2 0;
#X connect 8 0 28 0;
#X connect 9 0 18 0;
#X connect 9 0 19 0;
#X connect 9 0 20 0;
#X connect 9 0 21 0;
#X connect 10 0 14 0;
#X connect 11 0 29 0;
#X connect 12 0 30 0;
#X connect 13 0 31 0;
#X connect 14 0 5 0;
#X connect 15 0 5 0;
#X connect 16 0 5 0;
#X connect 17 0 5 0;
#X connect 18 0 8 0;
#X connect 19 0 11 0;
#X connect 20 0 12 0;
#X connect 21 0 13 0;
#X connect 23 0 24 0;
#X connect 23 0 3 1;
#X connect 24 0 3 1;
#X connect 25 0 16 0;
#X connect 26 0 15 0;
#X connect 27 0 17 0;
#X connect 28 0 10 0;
#X connect 29 0 26 0;
#X connect 30 0 25 0;
#X connect 31 0 27 0;
#X connect 32 0 7 0;
#X restore 196 201 pd 4voiceMonoChorus;
#N canvas 483 23 957 807 4voiceMonoChorus 0;
#X obj 64 56 inlet~;
#X obj 68 428 outlet~;
#X obj 87 287 line~;
#X obj 63 384 *~;
#X obj 212 385 *~;
#X obj 220 302 /~ 4;
#X obj 104 154 inlet;
#X msg 99 250 \$1 50;
#X obj 291 207 osc~ 0.1;
#X obj 288 43 inlet;
#X obj 288 260 +~ 10;
#X obj 405 206 osc~ 0.1;
#X obj 502 207 osc~ 0.1;
#X obj 598 203 osc~ 0.1;
#X obj 289 287 delread4~ d1\$0;
#X obj 403 288 delread4~ d1\$0;
#X obj 499 292 delread4~ d1\$0;
#X obj 593 295 delread4~ d1\$0;
#N canvas 479 318 450 300 randomize 0;
#X obj 83 76 t f f b;
#X obj 126 107 random 100;
#X obj 126 137 / 100;
#X obj 98 163 +;
#X obj 81 20 inlet;
#X obj 79 223 outlet;
#X obj 79 185 *;
#X obj 84 51 sqrt;
#X connect 0 0 6 0;
#X connect 0 1 3 0;
#X connect 0 2 1 0;
#X connect 1 0 2 0;
#X connect 2 0 3 1;
#X connect 3 0 6 1;
#X connect 4 0 7 0;
#X connect 6 0 5 0;
#X connect 7 0 0 0;
#X restore 291 103 pd randomize;
#N canvas 479 318 450 300 randomize 0;
#X obj 83 76 t f f b;
#X obj 126 107 random 100;
#X obj 126 137 / 100;
#X obj 98 163 +;
#X obj 81 20 inlet;
#X obj 79 223 outlet;
#X obj 79 185 *;
#X obj 84 51 sqrt;
#X connect 0 0 6 0;
#X connect 0 1 3 0;
#X connect 0 2 1 0;
#X connect 1 0 2 0;
#X connect 2 0 3 1;
#X connect 3 0 6 1;
#X connect 4 0 7 0;
#X connect 6 0 5 0;
#X connect 7 0 0 0;
#X restore 394 107 pd randomize;
#N canvas 479 318 450 300 randomize 0;
#X obj 83 76 t f f b;
#X obj 126 107 random 100;
#X obj 126 137 / 100;
#X obj 98 163 +;
#X obj 81 20 inlet;
#X obj 79 223 outlet;
#X obj 79 185 *;
#X obj 84 51 sqrt;
#X connect 0 0 6 0;
#X connect 0 1 3 0;
#X connect 0 2 1 0;
#X connect 1 0 2 0;
#X connect 2 0 3 1;
#X connect 3 0 6 1;
#X connect 4 0 7 0;
#X connect 6 0 5 0;
#X connect 7 0 0 0;
#X restore 495 103 pd randomize;
#N canvas 479 318 450 300 randomize 0;
#X obj 83 76 t f f b;
#X obj 126 107 random 100;
#X obj 126 137 / 100;
#X obj 98 163 +;
#X obj 81 20 inlet;
#X obj 79 223 outlet;
#X obj 79 185 *;
#X obj 84 51 sqrt;
#X connect 0 0 6 0;
#X connect 0 1 3 0;
#X connect 0 2 1 0;
#X connect 1 0 2 0;
#X connect 2 0 3 1;
#X connect 3 0 6 1;
#X connect 4 0 7 0;
#X connect 6 0 5 0;
#X connect 7 0 0 0;
#X restore 600 104 pd randomize;
#X obj 83 317 sig~ 1;
#X obj 80 346 -~;
#X obj 499 259 +~ 10;
#X obj 403 259 +~ 13;
#X obj 595 256 +~ 14;
#X obj 291 236 *~ 5;
#X obj 405 235 *~ 5;
#X obj 502 236 *~ 5;
#X obj 598 232 *~ 5;
#X obj 102 104 delwrite~ d2\$0 1000;
#X obj 103 206 clip 0 1;
#X connect 0 0 3 0;
#X connect 0 0 31 0;
#X connect 2 0 4 1;
#X connect 2 0 23 1;
#X connect 3 0 1 0;
#X connect 4 0 1 0;
#X connect 5 0 4 0;
#X connect 6 0 32 0;
#X connect 7 0 2 0;
#X connect 8 0 27 0;
#X connect 9 0 18 0;
#X connect 9 0 19 0;
#X connect 9 0 20 0;
#X connect 9 0 21 0;
#X connect 10 0 14 0;
#X connect 11 0 28 0;
#X connect 12 0 29 0;
#X connect 13 0 30 0;
#X connect 14 0 5 0;
#X connect 15 0 5 0;
#X connect 16 0 5 0;
#X connect 17 0 5 0;
#X connect 18 0 8 0;
#X connect 19 0 11 0;
#X connect 20 0 12 0;
#X connect 21 0 13 0;
#X connect 22 0 23 0;
#X connect 22 0 3 1;
#X connect 23 0 3 1;
#X connect 24 0 16 0;
#X connect 25 0 15 0;
#X connect 26 0 17 0;
#X connect 27 0 10 0;
#X connect 28 0 25 0;
#X connect 29 0 24 0;
#X connect 30 0 26 0;
#X connect 32 0 7 0;
#X restore 44 196 pd 4voiceMonoChorus;
#N canvas 681 309 450 300 placeholder 0;
#X obj 248 146 line~;
#X obj 120 189 *~;
#X obj 105 271 outlet~;
#X obj 249 32 inlet;
#X msg 252 62 \$1 50;
#X obj 107 242 *~ 0.2;
#X obj 117 78 phasor~ 50;
#X obj 126 104 phasor~ 150;
#X obj 167 135 phasor~ 250;
#X obj 114 211 lop~ 2000;
#X connect 0 0 1 1;
#X connect 1 0 9 0;
#X connect 3 0 4 0;
#X connect 4 0 0 0;
#X connect 5 0 2 0;
#X connect 6 0 1 0;
#X connect 7 0 1 0;
#X connect 8 0 1 0;
#X connect 9 0 5 0;
#X restore 50 138 pd placeholder;
#X obj 57 56 tgl 15 0 empty empty empty 17 7 0 10 -262144 -1 -1 0 1
;
#X floatatom 294 109 5 0 0 0 - - -;
#X floatatom 384 120 5 0 0 0 - - -;
#X text 287 77 effect mix;
#X text 381 89 effect amount;
#X connect 1 0 0 1;
#X connect 2 0 0 0;
#X connect 3 0 2 0;
#X connect 3 0 1 0;
#X connect 4 0 3 0;
#X connect 5 0 2 1;
#X connect 5 0 1 1;
#X connect 6 0 1 2;
#X connect 6 0 2 2;
