#N canvas 433 459 450 300 10;
#N canvas 795 259 450 300 flanger 1;
#X obj 81 23 inlet~;
#X obj 77 255 outlet~;
#X obj 145 92 delwrite~ d1\$0 40;
#X obj 340 198 line~;
#X obj 211 219 *~;
#X msg 339 179 \$1 10;
#X obj 336 120 inlet;
#X obj 340 159 clip -0.99 0.99;
#X obj 281 69 osc~ 0.5;
#X obj 282 95 *~ 2;
#X obj 220 163 delread4~ d1\$0 10;
#X obj 281 23 inlet;
#X obj 350 23 inlet;
#X obj 337 56 clip 0 5;
#X obj 278 130 +~ 5;
#X connect 0 0 2 0;
#X connect 3 0 4 1;
#X connect 4 0 2 0;
#X connect 5 0 3 0;
#X connect 6 0 7 0;
#X connect 7 0 5 0;
#X connect 8 0 9 0;
#X connect 9 0 14 0;
#X connect 10 0 4 0;
#X connect 10 0 1 0;
#X connect 11 0 8 0;
#X connect 12 0 13 0;
#X connect 13 0 9 1;
#X connect 14 0 10 0;
#X restore 54 181 pd flanger;
#N canvas 681 309 450 300 placeholder 0;
#X obj 248 146 line~;
#X obj 120 189 *~;
#X obj 105 271 outlet~;
#X obj 249 32 inlet;
#X msg 252 62 \$1 50;
#X obj 107 242 *~ 0.2;
#X obj 126 104 phasor~ 150;
#X obj 167 135 phasor~ 500;
#X obj 117 78 phasor~ 50;
#X obj 114 211 lop~ 2000;
#X connect 0 0 1 1;
#X connect 1 0 9 0;
#X connect 3 0 4 0;
#X connect 4 0 0 0;
#X connect 5 0 2 0;
#X connect 6 0 1 0;
#X connect 7 0 1 0;
#X connect 8 0 1 0;
#X connect 9 0 5 0;
#X restore 51 40 pd placeholder;
#X obj 53 20 tgl 15 0 empty empty empty 17 7 0 10 -262144 -1 -1 1 1
;
#X obj 59 247 dac~;
#X floatatom 209 119 5 0 0 0 - - -;
#X text 259 115 feedback;
#X floatatom 79 124 5 0 0 0 - - -;
#X floatatom 136 85 5 0 0 0 - - -;
#X text 151 63 amount;
#X text 79 93 rate;
#X connect 0 0 3 0;
#X connect 0 0 3 1;
#X connect 1 0 0 0;
#X connect 2 0 1 0;
#X connect 4 0 0 2;
#X connect 6 0 0 1;
#X connect 7 0 0 3;
