#N canvas 505 336 589 477 10;
#N canvas 691 202 450 300 tremolo 1;
#X obj 72 26 inlet~;
#X obj 51 263 outlet~;
#X obj 127 96 osc~ 1;
#X obj 126 152 pow~ 1;
#X obj 134 20 inlet;
#X obj 264 44 inlet;
#X floatatom 242 83 5 0 0 0 - - -;
#X obj 233 120 clip 0 10000;
#X obj 53 227 *~;
#X obj 78 126 sig~ 1;
#X obj 68 199 -~;
#X obj 121 194 *~;
#X obj 354 101 inlet;
#X obj 302 196 clip 0 1;
#X connect 0 0 8 0;
#X connect 2 0 3 0;
#X connect 3 0 11 0;
#X connect 4 0 2 0;
#X connect 5 0 6 0;
#X connect 6 0 7 0;
#X connect 7 0 3 1;
#X connect 8 0 1 0;
#X connect 9 0 10 0;
#X connect 10 0 8 1;
#X connect 11 0 10 1;
#X connect 12 0 13 0;
#X connect 13 0 11 1;
#X restore 48 258 pd tremolo;
#X obj 49 319 dac~;
#N canvas 25 23 502 486 placeholder 0;
#X obj 126 74 noise~;
#X obj 120 131 lop~ 1000;
#X obj 119 167 hip~ 300;
#X obj 118 215 *~ 0.5;
#X obj 120 298 outlet~;
#X obj 127 257 *~;
#X obj 256 161 inlet;
#X msg 252 239 \$1 50;
#X obj 253 287 line~;
#X connect 0 0 1 0;
#X connect 1 0 2 0;
#X connect 2 0 3 0;
#X connect 3 0 5 0;
#X connect 5 0 4 0;
#X connect 6 0 7 0;
#X connect 7 0 8 0;
#X connect 8 0 5 1;
#X restore 49 60 pd placeholder;
#X floatatom 77 169 5 0 0 0 - - -;
#X floatatom 197 197 5 0 0 0 - - -;
#X text 234 194 shape;
#X floatatom 280 210 5 0 0 0 - - -;
#X text 322 208 amount;
#X obj 77 90 loadbang;
#X msg 76 142 3;
#X msg 197 174 1;
#X text 119 166 frequency;
#X msg 283 183 1;
#X obj 41 16 tgl 15 0 empty empty empty 17 7 0 10 -262144 -1 -1 0 1
;
#X connect 0 0 1 0;
#X connect 0 0 1 1;
#X connect 2 0 0 0;
#X connect 3 0 0 1;
#X connect 4 0 0 2;
#X connect 6 0 0 3;
#X connect 8 0 9 0;
#X connect 8 0 10 0;
#X connect 8 0 12 0;
#X connect 9 0 3 0;
#X connect 10 0 4 0;
#X connect 12 0 6 0;
#X connect 13 0 2 0;
