#N canvas 465 285 395 221 10;
#X obj 17 16 hsl 256 32 0 1 0 0 empty empty empty -2 -8 0 10 -262144
-1 -1 0 1;
#N canvas 796 295 450 300 scrubber~ 0;
#X obj 177 193 table soundfile\$0;
#X obj 42 85 soundfiler;
#X obj 28 130 *;
#X obj 29 218 tabread4~ soundfile\$0;
#X obj 28 20 inlet;
#X obj 42 108 - 2;
#X obj 82 19 inlet;
#X obj 293 48 openpanel;
#X obj 292 101 pack s \$0;
#X obj 293 17 route bang;
#X msg 292 135 read -resize \$1 soundfile\$2;
#X obj 31 267 outlet~;
#X obj 28 193 line~;
#X obj 89 168 print;
#X msg 30 156 \$1 100;
#X obj 30 245 hip~ 5;
#X connect 1 0 5 0;
#X connect 2 0 14 0;
#X connect 3 0 15 0;
#X connect 4 0 2 0;
#X connect 5 0 2 1;
#X connect 6 0 9 0;
#X connect 7 0 8 0;
#X connect 8 0 10 0;
#X connect 9 0 7 0;
#X connect 9 1 8 0;
#X connect 10 0 1 0;
#X connect 12 0 3 0;
#X connect 14 0 12 0;
#X connect 14 0 13 0;
#X connect 15 0 11 0;
#X restore 16 100 pd scrubber~;
#X obj 15 134 dac~;
#X obj 92 65 bng 15 250 50 0 empty empty empty 17 7 0 10 -262144 -1
-1;
#X text 119 63 click bang to load a sound;
#X connect 0 0 1 0;
#X connect 1 0 2 0;
#X connect 1 0 2 1;
#X connect 3 0 1 1;
