#N canvas 208 149 593 641 10;
#N canvas 619 88 634 575 soundPlayer~ 1;
#X obj 116 61 inlet;
#X obj 215 62 inlet;
#X obj 166 61 inlet;
#X obj 277 134 soundfiler;
#X obj 166 149 mtof;
#X obj 166 214 /;
#X obj 215 144 mtof \$1;
#X msg 334 154 \$1;
#X obj 279 207 /;
#X text 307 222 duration in seconds;
#X msg 165 406 0 \, \$2 \$1;
#X obj 166 377 pack 0 0;
#X obj 164 321 *;
#X obj 286 477 table sound\$0;
#X obj 166 520 outlet~;
#X obj 255 181 t f f;
#X obj 276 59 openpanel;
#X obj 276 16 inlet;
#X msg 277 107 read -resize \$1 sound\$2;
#X obj 276 83 pack s \$0;
#X obj 164 437 vline~;
#X obj 164 478 tabread4~ sound\$0;
#X obj 165 346 * 1000;
#X msg 161 245 1 \$1;
#X obj 159 277 /;
#X obj 274 39 route bang;
#X connect 0 0 23 0;
#X connect 1 0 6 0;
#X connect 2 0 4 0;
#X connect 3 0 15 0;
#X connect 3 1 7 0;
#X connect 4 0 5 0;
#X connect 5 0 23 0;
#X connect 6 0 5 1;
#X connect 7 0 8 1;
#X connect 8 0 12 1;
#X connect 10 0 20 0;
#X connect 11 0 10 0;
#X connect 12 0 22 0;
#X connect 15 0 11 1;
#X connect 15 1 8 0;
#X connect 16 0 19 0;
#X connect 17 0 25 0;
#X connect 18 0 3 0;
#X connect 19 0 18 0;
#X connect 20 0 21 0;
#X connect 21 0 14 0;
#X connect 22 0 11 0;
#X connect 23 0 24 0;
#X connect 24 0 12 0;
#X connect 25 0 16 0;
#X connect 25 1 19 0;
#X restore 74 183 pd soundPlayer~;
#X msg 184 159 0;
#X obj 200 190 bng 15 250 50 0 empty empty empty 17 7 0 10 -262144
-1 -1;
#X obj 78 308 dac~;
#X msg 193 70 0.5;
#X text 230 188 bang to load a sound;
#X msg 188 118 12;
#X text 215 156 set base pitch index (midi);
#X text 235 117 play desired pitch index (midi \, here a sound 12 steps
up);
#X text 228 66 play sound at desired rate \, here at half speed;
#X connect 0 0 3 0;
#X connect 0 0 3 1;
#X connect 1 0 0 2;
#X connect 2 0 0 3;
#X connect 4 0 0 0;
#X connect 6 0 0 1;
