#N canvas 159 207 648 396 10;
#N canvas 756 238 616 562 cosWavetable 1;
#X obj 241 223 atan 1;
#X msg 238 176 1;
#X obj 243 253 * 8;
#X text 262 240 2pi;
#X obj 237 55 loadbang;
#X obj 210 333 *;
#X obj 334 137 f 0;
#X obj 442 159 + 1;
#X obj 333 165 t f f f;
#X obj 441 251 select 0;
#X obj 210 379 cos;
#X obj 175 266 / 2;
#X obj 182 290 + 0.5;
#X obj 241 97 t b b;
#X obj 330 106 until;
#X obj 443 202 % 1026;
#X obj 346 448 table lookup\$0 1026;
#X obj 32 200 tabread4~ lookup\$0;
#X obj 31 152 *~ 1024;
#X obj 30 41 inlet~;
#X obj 34 332 outlet~;
#X obj 33 237 hip~ 5;
#X obj 189 227 / 1024;
#X obj 33 78 +~ 1;
#X obj 33 119 /~ 2;
#X obj 209 449 tabwrite lookup\$0;
#X obj 164 43 bng 15 250 50 0 empty empty empty 17 7 0 10 -262144 -1
-1;
#X connect 0 0 2 0;
#X connect 1 0 0 0;
#X connect 2 0 5 1;
#X connect 4 0 13 0;
#X connect 5 0 10 0;
#X connect 6 0 8 0;
#X connect 7 0 15 0;
#X connect 8 0 7 0;
#X connect 8 1 22 0;
#X connect 8 2 25 1;
#X connect 9 0 14 1;
#X connect 10 0 25 0;
#X connect 11 0 12 0;
#X connect 12 0 5 0;
#X connect 13 0 14 0;
#X connect 13 1 1 0;
#X connect 14 0 6 0;
#X connect 15 0 6 1;
#X connect 15 0 9 0;
#X connect 17 0 21 0;
#X connect 18 0 17 0;
#X connect 19 0 23 0;
#X connect 21 0 20 0;
#X connect 22 0 11 0;
#X connect 23 0 24 0;
#X connect 24 0 18 0;
#X connect 26 0 13 0;
#X restore 57 141 pd cosWavetable;
#X obj 59 243 dac~;
#N canvas 25 23 450 300 placeholder 0;
#X obj 68 34 inlet;
#X obj 71 87 osc~ 440;
#X obj 73 141 *~ 0.5;
#X obj 73 189 *~;
#X obj 229 128 line~;
#X msg 211 86 \$1 50;
#X obj 72 226 outlet~;
#X connect 0 0 5 0;
#X connect 1 0 2 0;
#X connect 2 0 3 0;
#X connect 3 0 6 0;
#X connect 4 0 3 1;
#X connect 5 0 4 0;
#X restore 48 76 pd placeholder;
#X obj 46 31 tgl 15 0 empty empty empty 17 7 0 10 -262144 -1 -1 0 1
;
#X text 166 141 map sound to cosine to produce mild distortion;
#X connect 0 0 1 0;
#X connect 0 0 1 1;
#X connect 2 0 0 0;
#X connect 3 0 2 0;
