#N canvas 82 368 450 300 10;
#N canvas 753 292 450 300 hardclipper 0;
#X obj 97 32 inlet~;
#X obj 93 254 outlet~;
#X obj 95 160 clip~ -1 1;
#X obj 96 122 *~;
#X obj 164 55 inlet;
#X obj 163 117 line~;
#X msg 164 88 \$1 50;
#X connect 0 0 3 0;
#X connect 2 0 1 0;
#X connect 3 0 2 0;
#X connect 4 0 6 0;
#X connect 5 0 3 1;
#X connect 6 0 5 0;
#X restore 70 129 pd hardclipper;
#X obj 72 184 *~ 0.1;
#X obj 68 234 dac~;
#N canvas 25 23 450 300 placeholder 0;
#X obj 37 37 inlet;
#X obj 124 121 osc~ 220;
#X obj 138 165 *~;
#X obj 291 132 line~;
#X msg 238 94 \$1 20;
#X obj 116 257 outlet~;
#X connect 0 0 1 0;
#X connect 1 0 2 0;
#X connect 2 0 5 0;
#X connect 3 0 2 1;
#X connect 4 0 3 0;
#X restore 63 68 pd placeholder;
#X obj 65 28 tgl 15 0 empty empty empty 17 7 0 10 -262144 -1 -1 0 1
;
#X obj 232 55 loadbang 2;
#X floatatom 151 103 5 0 0 0 - - -;
#X connect 0 0 1 0;
#X connect 1 0 2 0;
#X connect 1 0 2 1;
#X connect 3 0 0 0;
#X connect 4 0 3 0;
#X connect 5 0 6 0;
#X connect 6 0 0 1;
