#N canvas 713 172 648 396 10;
#X obj 58 287 dac~;
#N canvas 25 23 450 300 placeholder 0;
#X obj 68 34 inlet;
#X obj 71 87 osc~ 440;
#X obj 73 141 *~ 0.5;
#X obj 73 189 *~;
#X obj 229 128 line~;
#X msg 211 86 \$1 50;
#X obj 72 226 outlet~;
#X connect 0 0 5 0;
#X connect 1 0 2 0;
#X connect 2 0 3 0;
#X connect 3 0 6 0;
#X connect 4 0 3 1;
#X connect 5 0 4 0;
#X restore 48 76 pd placeholder;
#X obj 46 31 tgl 15 0 empty empty empty 17 7 0 10 -262144 -1 -1 0 1
;
#X text 166 141 map sound to power curve to produce distortion;
#N canvas 756 236 616 562 powWavetable 1;
#X obj 328 42 loadbang;
#X obj 334 137 f 0;
#X obj 442 159 + 1;
#X obj 333 165 t f f f;
#X obj 441 251 select 0;
#X obj 209 449 tabwrite lookup\$0;
#X obj 330 106 until;
#X obj 443 202 % 1026;
#X obj 346 448 table lookup\$0 1026;
#X obj 32 240 tabread4~ lookup\$0;
#X obj 31 209 *~ 1024;
#X obj 30 41 inlet~;
#X obj 34 312 outlet~;
#X obj 33 277 hip~ 5;
#X obj 203 226 / 512;
#X obj 203 253 - 1;
#X msg 523 300 2;
#X obj 207 343 expr if ($f1 > 0 \, pow($f1 \, $f2) \, -pow(abs($f1)
\, $f2));
#X obj 322 75 t b b;
#X obj 470 32 inlet;
#X obj 474 112 t b f;
#X obj 29 73 +~ 1;
#X obj 24 148 /~ 2;
#X obj 469 75 clip 0.0001 100;
#X connect 0 0 18 0;
#X connect 1 0 3 0;
#X connect 2 0 7 0;
#X connect 3 0 2 0;
#X connect 3 1 14 0;
#X connect 3 2 5 1;
#X connect 4 0 6 1;
#X connect 6 0 1 0;
#X connect 7 0 1 1;
#X connect 7 0 4 0;
#X connect 9 0 13 0;
#X connect 10 0 9 0;
#X connect 11 0 21 0;
#X connect 13 0 12 0;
#X connect 14 0 15 0;
#X connect 15 0 17 0;
#X connect 16 0 17 1;
#X connect 17 0 5 0;
#X connect 18 0 6 0;
#X connect 18 1 16 0;
#X connect 19 0 23 0;
#X connect 20 0 6 0;
#X connect 20 1 17 1;
#X connect 21 0 22 0;
#X connect 22 0 10 0;
#X connect 23 0 20 0;
#X restore 57 141 pd powWavetable;
#X floatatom 138 104 5 0 0 0 - - -;
#X connect 1 0 4 0;
#X connect 2 0 1 0;
#X connect 4 0 0 0;
#X connect 4 0 0 1;
#X connect 5 0 4 1;
