#N canvas 100 200 539 436 10;
#N canvas 745 187 496 462 reduceBitDepth 1;
#X obj 41 87 +~ 1;
#X text 83 86 remap range 0 - 2;
#X obj 41 128 *~ 128;
#X text 90 128 remap range 0 - 256;
#X obj 41 43 inlet~;
#X obj 40 177 expr~ floor($v1);
#X text 149 176 remap to integers 0-255;
#X obj 40 222 /~ 127.5;
#X text 106 223 0-2;
#X obj 40 267 -~ 1;
#X text 87 266 -1 - 1;
#X obj 40 307 outlet~;
#X obj 329 85 <<;
#X obj 329 41 t b i;
#X msg 328 63 1;
#X obj 329 111 / 2;
#X obj 401 90 - 1;
#X obj 395 202 / 2;
#X obj 327 21 inlet;
#X connect 0 0 2 0;
#X connect 2 0 5 0;
#X connect 4 0 0 0;
#X connect 5 0 7 0;
#X connect 7 0 9 0;
#X connect 9 0 11 0;
#X connect 12 0 16 0;
#X connect 12 0 15 0;
#X connect 13 0 14 0;
#X connect 13 1 12 1;
#X connect 14 0 12 0;
#X connect 15 0 2 1;
#X connect 16 0 17 0;
#X connect 17 0 7 1;
#X connect 18 0 13 0;
#X restore 118 168 pd reduceBitDepth;
#X obj 114 291 dac~;
#X floatatom 217 140 5 0 0 0 - - -;
#X obj 113 75 phasor~ 440;
#X obj 212 54 loadbang;
#X msg 214 100 16;
#X connect 0 0 1 0;
#X connect 0 0 1 1;
#X connect 2 0 0 1;
#X connect 3 0 0 0;
#X connect 4 0 5 0;
#X connect 5 0 2 0;
