#N canvas 25 23 450 300 10;
#N canvas 572 213 450 300 resample 0;
#X obj 145 151 samphold~;
#X obj 196 111 phasor~;
#X obj 142 89 inlet~;
#X obj 198 55 inlet;
#X obj 142 236 outlet~;
#X obj 141 189 hip~ 20;
#X connect 0 0 5 0;
#X connect 1 0 0 1;
#X connect 2 0 0 0;
#X connect 3 0 1 0;
#X connect 5 0 4 0;
#X restore 175 154 pd resample;
#X floatatom 238 91 5 0 0 0 - - -;
#X text 283 90 new sample rate;
#X obj 176 35 osc~ 440;
#X text 238 35 use any sound you want;
#X obj 173 204 dac~;
#X connect 0 0 5 0;
#X connect 0 0 5 1;
#X connect 1 0 0 1;
#X connect 3 0 0 0;
