#N canvas 244 313 450 300 10;
#N canvas 541 317 450 300 echo 0;
#X obj 47 178 delread4~ del\$0 500;
#X obj 53 91 delwrite~ del\$0 2000;
#X obj 45 240 outlet~;
#X obj 193 225 *~;
#X obj 229 120 clip 0 1;
#X msg 231 151 \$1 50;
#X obj 230 178 line~;
#X obj 227 35 inlet;
#X obj 321 29 inlet;
#X obj 321 68 clip 20 2000;
#X msg 316 109 \$1 50;
#X obj 318 134 line~;
#X obj 52 33 inlet~;
#X obj 153 278 clip~ -1 1;
#X connect 0 0 2 0;
#X connect 0 0 3 0;
#X connect 3 0 13 0;
#X connect 4 0 5 0;
#X connect 5 0 6 0;
#X connect 6 0 3 1;
#X connect 7 0 4 0;
#X connect 8 0 9 0;
#X connect 9 0 10 0;
#X connect 10 0 11 0;
#X connect 11 0 0 0;
#X connect 12 0 1 0;
#X connect 13 0 1 0;
#X restore 76 180 pd echo;
#X obj 75 208 dac~;
#X floatatom 95 102 5 0 0 0 - - -;
#X floatatom 114 156 5 0 0 0 - - -;
#X obj 86 28 bng 15 250 50 0 empty empty empty 17 7 0 10 -262144 -1
-1;
#X text 174 52 use any sound you want;
#X text 127 99 feedback amount (how long the echo lasts);
#X text 150 153 echo time (how long between each sound);
#N canvas 25 23 450 300 placeholder 1;
#X obj 98 169 outlet~;
#X obj 173 26 inlet;
#X obj 91 71 osc~ 1000;
#X obj 167 102 line~;
#X msg 170 69 1 \, 0 20;
#X obj 97 115 *~;
#X connect 1 0 4 0;
#X connect 2 0 5 0;
#X connect 3 0 5 1;
#X connect 4 0 3 0;
#X connect 5 0 0 0;
#X restore 75 52 pd placeholder;
#X connect 0 0 1 0;
#X connect 2 0 0 1;
#X connect 3 0 0 2;
#X connect 4 0 8 0;
#X connect 8 0 0 0;
