#N canvas 832 250 450 300 10;
#N canvas 735 169 547 524 panner 0;
#X obj 83 38 inlet~;
#X obj 112 220 cos~;
#X obj 283 235 cos~;
#X obj 112 189 line~;
#X obj 283 206 line~;
#X msg 112 159 \$1 50;
#X msg 283 176 \$1 50;
#X obj 97 244 *~;
#X obj 269 263 *~;
#X obj 96 298 outlet~;
#X obj 271 297 outlet~;
#X obj 231 45 inlet;
#X text 278 42 -1 - 1;
#X obj 282 151 + 0.75;
#X obj 233 97 + 1;
#X text 300 72 0-2;
#X obj 233 124 / 8;
#X obj 233 74 clip -1 1;
#X connect 0 0 7 0;
#X connect 0 0 8 0;
#X connect 1 0 7 1;
#X connect 2 0 8 1;
#X connect 3 0 1 0;
#X connect 4 0 2 0;
#X connect 5 0 3 0;
#X connect 6 0 4 0;
#X connect 7 0 9 0;
#X connect 8 0 10 0;
#X connect 11 0 17 0;
#X connect 13 0 6 0;
#X connect 14 0 16 0;
#X connect 16 0 13 0;
#X connect 16 0 5 0;
#X connect 17 0 14 0;
#X restore 75 178 pd panner;
#X floatatom 161 122 5 0 0 0 - - -;
#X text 204 122 -1 - 1;
#X obj 74 255 dac~;
#N canvas 25 23 450 300 placeholdersound 1;
#X obj 89 84 osc~ 440;
#X obj 91 132 *~ 0.5;
#X obj 180 74 inlet;
#X obj 85 200 *~;
#X msg 174 153 \$1 50;
#X obj 85 253 outlet~;
#X obj 162 190 line~;
#X connect 0 0 1 0;
#X connect 1 0 3 0;
#X connect 2 0 4 0;
#X connect 3 0 5 0;
#X connect 4 0 6 0;
#X connect 6 0 3 1;
#X restore 73 82 pd placeholdersound;
#X obj 74 24 tgl 15 0 empty empty empty 17 7 0 10 -262144 -1 -1 0 1
;
#X connect 0 0 3 0;
#X connect 0 1 3 1;
#X connect 1 0 0 1;
#X connect 4 0 0 0;
#X connect 5 0 4 0;
