#N canvas 410 63 608 516 10;
#X obj 177 86 bng 15 250 50 0 empty empty empty 17 7 0 10 -262144 -1
-1;
#X text 224 100 you may also send a path to read directly;
#X text 229 115 accpets wav and aif;
#X obj 59 84 bng 15 250 50 0 empty empty empty 17 7 0 10 -262144 -1
-1;
#X obj 63 192 dac~;
#X text 55 63 bang to play sound;
#X text 226 85 bang to load file dialog;
#N canvas 646 312 555 311 loadPlaySoundStereo 0;
#X obj 44 20 inlet;
#X obj 229 20 inlet;
#X obj 229 85 openpanel;
#X obj 228 138 pack s \$0;
#X obj 228 210 soundfiler;
#X obj 229 54 route bang;
#X obj 45 175 outlet~;
#X obj 74 202 outlet~;
#X obj 45 76 tabplay~ soundfilel\$0;
#X obj 73 112 tabplay~ soundfiler\$0;
#X obj 303 209 table soundfilel\$0;
#X obj 303 233 table soundfiler\$0;
#X msg 226 174 read -resize \$1 soundfilel\$2 soundfiler\$2;
#X connect 0 0 8 0;
#X connect 1 0 5 0;
#X connect 2 0 3 0;
#X connect 3 0 12 0;
#X connect 5 0 2 0;
#X connect 5 1 3 0;
#X connect 8 0 6 0;
#X connect 9 0 7 0;
#X connect 12 0 4 0;
#X restore 59 131 pd loadPlaySoundStereo;
#X connect 0 0 7 1;
#X connect 3 0 7 0;
#X connect 7 0 4 0;
#X connect 7 0 4 1;
