#N canvas 675 76 680 743 10;
#X obj 42 449 *~ 0.1;
#X obj 41 542 dac~;
#N canvas 25 23 527 388 eqband 0;
#N canvas 125 23 480 766 biquadCoof 0;
#N canvas 0 22 783 567 hz2rad 0;
#X obj 194 113 samplerate~;
#X obj 194 71 loadbang;
#X obj 194 185 atan;
#X msg 194 160 1;
#X text 382 53 w = 2 * pi * f / SR;
#X obj 194 207 * 8;
#X obj 194 137 t b a;
#X obj 194 230 / 44100;
#X text 260 232 2 * pi / SR;
#X obj 119 269 *;
#X obj 119 35 inlet;
#X obj 119 298 outlet;
#X text 175 300 w(rad);
#X text 167 35 freq(Hz);
#X connect 0 0 6 0;
#X connect 1 0 0 0;
#X connect 2 0 5 0;
#X connect 3 0 2 0;
#X connect 5 0 7 0;
#X connect 6 0 3 0;
#X connect 6 1 7 1;
#X connect 7 0 9 1;
#X connect 9 0 11 0;
#X connect 10 0 9 0;
#X restore 46 341 pd hz2rad;
#X obj 46 371 t f f;
#X obj 114 401 sin;
#X obj 46 401 cos;
#X obj 114 441 s \$0-wsin;
#X obj 46 441 s \$0-wcos;
#X obj 46 281 clip 20 20000;
#X obj 218 281 clip 0.1 100;
#X obj 143 311 r \$0-wsin;
#X obj 203 441 s \$0-alpha;
#X msg 218 311 1 \$1;
#X obj 218 341 /;
#X obj 203 371 *;
#X obj 203 401 * 0.5;
#X obj 27 511 f;
#X msg 27 541 1 \$1;
#X obj 27 571 /;
#X obj 27 661 *;
#X obj 89 661 *;
#X obj 151 661 *;
#X obj 213 662 *;
#X obj 276 662 *;
#X obj 212 76 t b f;
#X obj 27 56 inlet freq;
#X obj 212 56 inlet q;
#X obj 117 57 loadbang;
#X obj 27 601 t f f f f f b;
#X obj 27 186 t b a b;
#X obj 27 703 outlet b0;
#X obj 89 703 outlet b1;
#X obj 151 703 outlet b2;
#X obj 213 703 outlet a1;
#X obj 276 703 outlet a2;
#N canvas 25 23 450 300 b0 0;
#X obj 54 65 r \$0-wcos;
#X obj 124 65 r \$0-wsin;
#X obj 272 65 r \$0-A;
#X obj 194 65 r \$0-alpha;
#X obj 194 181 outlet;
#X obj 194 119 *;
#X obj 194 151 + 1;
#X connect 2 0 5 1;
#X connect 3 0 5 0;
#X connect 5 0 6 0;
#X connect 6 0 4 0;
#X restore 121 601 pd b0;
#N canvas 25 23 450 300 b1 0;
#X obj 54 65 r \$0-wcos;
#X obj 124 65 r \$0-wsin;
#X obj 274 65 r \$0-A;
#X obj 194 65 r \$0-alpha;
#X obj 54 178 outlet;
#X obj 54 127 * -2;
#X connect 0 0 5 0;
#X connect 5 0 4 0;
#X restore 165 601 pd b1;
#N canvas 25 23 450 300 b2 0;
#X obj 54 65 r \$0-wcos;
#X obj 124 65 r \$0-wsin;
#X obj 272 65 r \$0-A;
#X obj 194 65 r \$0-alpha;
#X obj 194 198 outlet;
#X obj 194 124 *;
#X msg 194 146 1 \$1;
#X obj 194 168 -;
#X connect 2 0 5 1;
#X connect 3 0 5 0;
#X connect 5 0 6 0;
#X connect 6 0 7 0;
#X connect 7 0 4 0;
#X restore 209 601 pd b2;
#N canvas 25 23 450 300 a1 0;
#X obj 54 65 r \$0-wcos;
#X obj 124 65 r \$0-wsin;
#X obj 274 65 r \$0-A;
#X obj 194 65 r \$0-alpha;
#X obj 54 198 outlet;
#X obj 54 127 * -2;
#X connect 0 0 5 0;
#X connect 5 0 4 0;
#X restore 251 601 pd a1;
#N canvas 25 23 450 300 a2 0;
#X obj 54 65 r \$0-wcos;
#X obj 124 65 r \$0-wsin;
#X obj 268 65 r \$0-A;
#X obj 196 65 r \$0-alpha;
#X obj 196 187 outlet;
#X obj 196 107 /;
#X msg 196 129 1 \$1;
#X obj 196 151 -;
#X connect 2 0 5 1;
#X connect 3 0 5 0;
#X connect 5 0 6 0;
#X connect 6 0 7 0;
#X connect 7 0 4 0;
#X restore 291 601 pd a2;
#X obj 316 281 clip -24 24;
#X obj 316 441 s \$0-A;
#X obj 316 311 / 40;
#X obj 316 341 t b f;
#X msg 316 371 10;
#X obj 316 401 pow 0;
#X obj 289 54 inlet dBGain;
#X obj 289 74 t b f;
#N canvas 0 22 450 300 a0 0;
#X obj 54 65 r \$0-wcos;
#X obj 124 65 r \$0-wsin;
#X obj 270 65 r \$0-A;
#X obj 194 65 r \$0-alpha;
#X obj 194 200 outlet;
#X obj 194 139 + 1;
#X obj 194 117 /;
#X connect 2 0 6 1;
#X connect 3 0 6 0;
#X connect 5 0 4 0;
#X connect 6 0 5 0;
#X restore 42 484 pd a0;
#X obj 27 147 f \$1;
#X obj 218 244 f \$2;
#X obj 316 245 f \$3;
#X obj 117 79 t b b;
#X connect 0 0 1 0;
#X connect 1 0 3 0;
#X connect 1 1 2 0;
#X connect 2 0 4 0;
#X connect 3 0 5 0;
#X connect 6 0 0 0;
#X connect 7 0 10 0;
#X connect 8 0 12 0;
#X connect 10 0 11 0;
#X connect 11 0 12 1;
#X connect 12 0 13 0;
#X connect 13 0 9 0;
#X connect 14 0 15 0;
#X connect 15 0 16 0;
#X connect 16 0 26 0;
#X connect 17 0 28 0;
#X connect 18 0 29 0;
#X connect 19 0 30 0;
#X connect 20 0 31 0;
#X connect 21 0 32 0;
#X connect 22 0 47 0;
#X connect 22 1 48 1;
#X connect 23 0 47 0;
#X connect 24 0 22 0;
#X connect 25 0 50 0;
#X connect 26 0 17 0;
#X connect 26 1 18 0;
#X connect 26 2 19 0;
#X connect 26 3 20 0;
#X connect 26 4 21 0;
#X connect 27 0 14 0;
#X connect 27 1 6 0;
#X connect 27 2 48 0;
#X connect 33 0 17 1;
#X connect 34 0 18 1;
#X connect 35 0 19 1;
#X connect 36 0 20 1;
#X connect 37 0 21 1;
#X connect 38 0 40 0;
#X connect 40 0 41 0;
#X connect 41 0 42 0;
#X connect 41 1 43 1;
#X connect 42 0 43 0;
#X connect 43 0 39 0;
#X connect 44 0 45 0;
#X connect 45 0 47 0;
#X connect 45 1 49 0;
#X connect 46 0 14 1;
#X connect 47 0 27 0;
#X connect 48 0 7 0;
#X connect 49 0 38 0;
#X connect 50 0 47 0;
#X connect 50 1 49 0;
#X restore 93 99 pd biquadCoof;
#X obj 82 241 pack 0 0 0 0 0;
#X obj 184 149 * -1;
#X obj 149 152 * -1;
#X obj 84 139 t b f;
#X obj 63 316 outlet~;
#X obj 63 274 biquad~;
#X obj 71 41 inlet~;
#X obj 125 39 inlet;
#X obj 169 39 inlet;
#X obj 218 37 inlet;
#X connect 0 0 4 0;
#X connect 0 1 1 3;
#X connect 0 2 1 4;
#X connect 0 3 3 0;
#X connect 0 4 2 0;
#X connect 1 0 6 0;
#X connect 2 0 1 1;
#X connect 3 0 1 0;
#X connect 4 0 1 0;
#X connect 4 1 1 2;
#X connect 6 0 5 0;
#X connect 7 0 6 0;
#X connect 8 0 0 0;
#X connect 9 0 0 1;
#X connect 10 0 0 2;
#X restore 120 371 pd eqband;
#N canvas 25 23 527 388 eqband 1;
#N canvas 125 23 480 766 biquadCoof 0;
#N canvas 0 22 783 567 hz2rad 0;
#X obj 194 113 samplerate~;
#X obj 194 71 loadbang;
#X obj 194 185 atan;
#X msg 194 160 1;
#X text 382 53 w = 2 * pi * f / SR;
#X obj 194 207 * 8;
#X obj 194 137 t b a;
#X obj 194 230 / 44100;
#X text 260 232 2 * pi / SR;
#X obj 119 269 *;
#X obj 119 35 inlet;
#X obj 119 298 outlet;
#X text 175 300 w(rad);
#X text 167 35 freq(Hz);
#X connect 0 0 6 0;
#X connect 1 0 0 0;
#X connect 2 0 5 0;
#X connect 3 0 2 0;
#X connect 5 0 7 0;
#X connect 6 0 3 0;
#X connect 6 1 7 1;
#X connect 7 0 9 1;
#X connect 9 0 11 0;
#X connect 10 0 9 0;
#X restore 46 341 pd hz2rad;
#X obj 46 371 t f f;
#X obj 114 401 sin;
#X obj 46 401 cos;
#X obj 114 441 s \$0-wsin;
#X obj 46 441 s \$0-wcos;
#X obj 46 281 clip 20 20000;
#X obj 218 281 clip 0.1 100;
#X obj 143 311 r \$0-wsin;
#X obj 203 441 s \$0-alpha;
#X msg 218 311 1 \$1;
#X obj 218 341 /;
#X obj 203 371 *;
#X obj 203 401 * 0.5;
#X obj 27 511 f;
#X msg 27 541 1 \$1;
#X obj 27 571 /;
#X obj 27 661 *;
#X obj 89 661 *;
#X obj 151 661 *;
#X obj 213 662 *;
#X obj 276 662 *;
#X obj 212 76 t b f;
#X obj 27 56 inlet freq;
#X obj 212 56 inlet q;
#X obj 117 57 loadbang;
#X obj 27 601 t f f f f f b;
#X obj 27 186 t b a b;
#X obj 27 703 outlet b0;
#X obj 89 703 outlet b1;
#X obj 151 703 outlet b2;
#X obj 213 703 outlet a1;
#X obj 276 703 outlet a2;
#N canvas 25 23 450 300 b0 0;
#X obj 54 65 r \$0-wcos;
#X obj 124 65 r \$0-wsin;
#X obj 272 65 r \$0-A;
#X obj 194 65 r \$0-alpha;
#X obj 194 181 outlet;
#X obj 194 119 *;
#X obj 194 151 + 1;
#X connect 2 0 5 1;
#X connect 3 0 5 0;
#X connect 5 0 6 0;
#X connect 6 0 4 0;
#X restore 121 601 pd b0;
#N canvas 25 23 450 300 b1 0;
#X obj 54 65 r \$0-wcos;
#X obj 124 65 r \$0-wsin;
#X obj 274 65 r \$0-A;
#X obj 194 65 r \$0-alpha;
#X obj 54 178 outlet;
#X obj 54 127 * -2;
#X connect 0 0 5 0;
#X connect 5 0 4 0;
#X restore 165 601 pd b1;
#N canvas 25 23 450 300 b2 0;
#X obj 54 65 r \$0-wcos;
#X obj 124 65 r \$0-wsin;
#X obj 272 65 r \$0-A;
#X obj 194 65 r \$0-alpha;
#X obj 194 198 outlet;
#X obj 194 124 *;
#X msg 194 146 1 \$1;
#X obj 194 168 -;
#X connect 2 0 5 1;
#X connect 3 0 5 0;
#X connect 5 0 6 0;
#X connect 6 0 7 0;
#X connect 7 0 4 0;
#X restore 209 601 pd b2;
#N canvas 25 23 450 300 a1 0;
#X obj 54 65 r \$0-wcos;
#X obj 124 65 r \$0-wsin;
#X obj 274 65 r \$0-A;
#X obj 194 65 r \$0-alpha;
#X obj 54 198 outlet;
#X obj 54 127 * -2;
#X connect 0 0 5 0;
#X connect 5 0 4 0;
#X restore 251 601 pd a1;
#N canvas 25 23 450 300 a2 0;
#X obj 54 65 r \$0-wcos;
#X obj 124 65 r \$0-wsin;
#X obj 268 65 r \$0-A;
#X obj 196 65 r \$0-alpha;
#X obj 196 187 outlet;
#X obj 196 107 /;
#X msg 196 129 1 \$1;
#X obj 196 151 -;
#X connect 2 0 5 1;
#X connect 3 0 5 0;
#X connect 5 0 6 0;
#X connect 6 0 7 0;
#X connect 7 0 4 0;
#X restore 291 601 pd a2;
#X obj 316 281 clip -24 24;
#X obj 316 441 s \$0-A;
#X obj 316 311 / 40;
#X obj 316 341 t b f;
#X msg 316 371 10;
#X obj 316 401 pow 0;
#X obj 289 54 inlet dBGain;
#X obj 289 74 t b f;
#N canvas 0 22 450 300 a0 0;
#X obj 54 65 r \$0-wcos;
#X obj 124 65 r \$0-wsin;
#X obj 270 65 r \$0-A;
#X obj 194 65 r \$0-alpha;
#X obj 194 200 outlet;
#X obj 194 139 + 1;
#X obj 194 117 /;
#X connect 2 0 6 1;
#X connect 3 0 6 0;
#X connect 5 0 4 0;
#X connect 6 0 5 0;
#X restore 42 484 pd a0;
#X obj 27 147 f \$1;
#X obj 218 244 f \$2;
#X obj 316 245 f \$3;
#X obj 117 79 t b b;
#X connect 0 0 1 0;
#X connect 1 0 3 0;
#X connect 1 1 2 0;
#X connect 2 0 4 0;
#X connect 3 0 5 0;
#X connect 6 0 0 0;
#X connect 7 0 10 0;
#X connect 8 0 12 0;
#X connect 10 0 11 0;
#X connect 11 0 12 1;
#X connect 12 0 13 0;
#X connect 13 0 9 0;
#X connect 14 0 15 0;
#X connect 15 0 16 0;
#X connect 16 0 26 0;
#X connect 17 0 28 0;
#X connect 18 0 29 0;
#X connect 19 0 30 0;
#X connect 20 0 31 0;
#X connect 21 0 32 0;
#X connect 22 0 47 0;
#X connect 22 1 48 1;
#X connect 23 0 47 0;
#X connect 24 0 22 0;
#X connect 25 0 50 0;
#X connect 26 0 17 0;
#X connect 26 1 18 0;
#X connect 26 2 19 0;
#X connect 26 3 20 0;
#X connect 26 4 21 0;
#X connect 27 0 14 0;
#X connect 27 1 6 0;
#X connect 27 2 48 0;
#X connect 33 0 17 1;
#X connect 34 0 18 1;
#X connect 35 0 19 1;
#X connect 36 0 20 1;
#X connect 37 0 21 1;
#X connect 38 0 40 0;
#X connect 40 0 41 0;
#X connect 41 0 42 0;
#X connect 41 1 43 1;
#X connect 42 0 43 0;
#X connect 43 0 39 0;
#X connect 44 0 45 0;
#X connect 45 0 47 0;
#X connect 45 1 49 0;
#X connect 46 0 14 1;
#X connect 47 0 27 0;
#X connect 48 0 7 0;
#X connect 49 0 38 0;
#X connect 50 0 47 0;
#X connect 50 1 49 0;
#X restore 93 99 pd biquadCoof;
#X obj 82 241 pack 0 0 0 0 0;
#X obj 184 149 * -1;
#X obj 149 152 * -1;
#X obj 84 139 t b f;
#X obj 63 316 outlet~;
#X obj 63 274 biquad~;
#X obj 71 41 inlet~;
#X obj 125 39 inlet;
#X obj 169 39 inlet;
#X obj 218 37 inlet;
#X connect 0 0 4 0;
#X connect 0 1 1 3;
#X connect 0 2 1 4;
#X connect 0 3 3 0;
#X connect 0 4 2 0;
#X connect 1 0 6 0;
#X connect 2 0 1 1;
#X connect 3 0 1 0;
#X connect 4 0 1 0;
#X connect 4 1 1 2;
#X connect 6 0 5 0;
#X connect 7 0 6 0;
#X connect 8 0 0 0;
#X connect 9 0 0 1;
#X connect 10 0 0 2;
#X restore 213 370 pd eqband;
#N canvas 25 23 527 388 eqband 0;
#N canvas 125 23 480 766 biquadCoof 0;
#N canvas 0 22 783 567 hz2rad 0;
#X obj 194 113 samplerate~;
#X obj 194 71 loadbang;
#X obj 194 185 atan;
#X msg 194 160 1;
#X text 382 53 w = 2 * pi * f / SR;
#X obj 194 207 * 8;
#X obj 194 137 t b a;
#X obj 194 230 / 44100;
#X text 260 232 2 * pi / SR;
#X obj 119 269 *;
#X obj 119 35 inlet;
#X obj 119 298 outlet;
#X text 175 300 w(rad);
#X text 167 35 freq(Hz);
#X connect 0 0 6 0;
#X connect 1 0 0 0;
#X connect 2 0 5 0;
#X connect 3 0 2 0;
#X connect 5 0 7 0;
#X connect 6 0 3 0;
#X connect 6 1 7 1;
#X connect 7 0 9 1;
#X connect 9 0 11 0;
#X connect 10 0 9 0;
#X restore 46 341 pd hz2rad;
#X obj 46 371 t f f;
#X obj 114 401 sin;
#X obj 46 401 cos;
#X obj 114 441 s \$0-wsin;
#X obj 46 441 s \$0-wcos;
#X obj 46 281 clip 20 20000;
#X obj 218 281 clip 0.1 100;
#X obj 143 311 r \$0-wsin;
#X obj 203 441 s \$0-alpha;
#X msg 218 311 1 \$1;
#X obj 218 341 /;
#X obj 203 371 *;
#X obj 203 401 * 0.5;
#X obj 27 511 f;
#X msg 27 541 1 \$1;
#X obj 27 571 /;
#X obj 27 661 *;
#X obj 89 661 *;
#X obj 151 661 *;
#X obj 213 662 *;
#X obj 276 662 *;
#X obj 212 76 t b f;
#X obj 27 56 inlet freq;
#X obj 212 56 inlet q;
#X obj 117 57 loadbang;
#X obj 27 601 t f f f f f b;
#X obj 27 186 t b a b;
#X obj 27 703 outlet b0;
#X obj 89 703 outlet b1;
#X obj 151 703 outlet b2;
#X obj 213 703 outlet a1;
#X obj 276 703 outlet a2;
#N canvas 25 23 450 300 b0 0;
#X obj 54 65 r \$0-wcos;
#X obj 124 65 r \$0-wsin;
#X obj 272 65 r \$0-A;
#X obj 194 65 r \$0-alpha;
#X obj 194 181 outlet;
#X obj 194 119 *;
#X obj 194 151 + 1;
#X connect 2 0 5 1;
#X connect 3 0 5 0;
#X connect 5 0 6 0;
#X connect 6 0 4 0;
#X restore 121 601 pd b0;
#N canvas 25 23 450 300 b1 0;
#X obj 54 65 r \$0-wcos;
#X obj 124 65 r \$0-wsin;
#X obj 274 65 r \$0-A;
#X obj 194 65 r \$0-alpha;
#X obj 54 178 outlet;
#X obj 54 127 * -2;
#X connect 0 0 5 0;
#X connect 5 0 4 0;
#X restore 165 601 pd b1;
#N canvas 25 23 450 300 b2 0;
#X obj 54 65 r \$0-wcos;
#X obj 124 65 r \$0-wsin;
#X obj 272 65 r \$0-A;
#X obj 194 65 r \$0-alpha;
#X obj 194 198 outlet;
#X obj 194 124 *;
#X msg 194 146 1 \$1;
#X obj 194 168 -;
#X connect 2 0 5 1;
#X connect 3 0 5 0;
#X connect 5 0 6 0;
#X connect 6 0 7 0;
#X connect 7 0 4 0;
#X restore 209 601 pd b2;
#N canvas 25 23 450 300 a1 0;
#X obj 54 65 r \$0-wcos;
#X obj 124 65 r \$0-wsin;
#X obj 274 65 r \$0-A;
#X obj 194 65 r \$0-alpha;
#X obj 54 198 outlet;
#X obj 54 127 * -2;
#X connect 0 0 5 0;
#X connect 5 0 4 0;
#X restore 251 601 pd a1;
#N canvas 25 23 450 300 a2 0;
#X obj 54 65 r \$0-wcos;
#X obj 124 65 r \$0-wsin;
#X obj 268 65 r \$0-A;
#X obj 196 65 r \$0-alpha;
#X obj 196 187 outlet;
#X obj 196 107 /;
#X msg 196 129 1 \$1;
#X obj 196 151 -;
#X connect 2 0 5 1;
#X connect 3 0 5 0;
#X connect 5 0 6 0;
#X connect 6 0 7 0;
#X connect 7 0 4 0;
#X restore 291 601 pd a2;
#X obj 316 281 clip -24 24;
#X obj 316 441 s \$0-A;
#X obj 316 311 / 40;
#X obj 316 341 t b f;
#X msg 316 371 10;
#X obj 316 401 pow 0;
#X obj 289 54 inlet dBGain;
#X obj 289 74 t b f;
#N canvas 0 22 450 300 a0 0;
#X obj 54 65 r \$0-wcos;
#X obj 124 65 r \$0-wsin;
#X obj 270 65 r \$0-A;
#X obj 194 65 r \$0-alpha;
#X obj 194 200 outlet;
#X obj 194 139 + 1;
#X obj 194 117 /;
#X connect 2 0 6 1;
#X connect 3 0 6 0;
#X connect 5 0 4 0;
#X connect 6 0 5 0;
#X restore 42 484 pd a0;
#X obj 27 147 f \$1;
#X obj 218 244 f \$2;
#X obj 316 245 f \$3;
#X obj 117 79 t b b;
#X connect 0 0 1 0;
#X connect 1 0 3 0;
#X connect 1 1 2 0;
#X connect 2 0 4 0;
#X connect 3 0 5 0;
#X connect 6 0 0 0;
#X connect 7 0 10 0;
#X connect 8 0 12 0;
#X connect 10 0 11 0;
#X connect 11 0 12 1;
#X connect 12 0 13 0;
#X connect 13 0 9 0;
#X connect 14 0 15 0;
#X connect 15 0 16 0;
#X connect 16 0 26 0;
#X connect 17 0 28 0;
#X connect 18 0 29 0;
#X connect 19 0 30 0;
#X connect 20 0 31 0;
#X connect 21 0 32 0;
#X connect 22 0 47 0;
#X connect 22 1 48 1;
#X connect 23 0 47 0;
#X connect 24 0 22 0;
#X connect 25 0 50 0;
#X connect 26 0 17 0;
#X connect 26 1 18 0;
#X connect 26 2 19 0;
#X connect 26 3 20 0;
#X connect 26 4 21 0;
#X connect 27 0 14 0;
#X connect 27 1 6 0;
#X connect 27 2 48 0;
#X connect 33 0 17 1;
#X connect 34 0 18 1;
#X connect 35 0 19 1;
#X connect 36 0 20 1;
#X connect 37 0 21 1;
#X connect 38 0 40 0;
#X connect 40 0 41 0;
#X connect 41 0 42 0;
#X connect 41 1 43 1;
#X connect 42 0 43 0;
#X connect 43 0 39 0;
#X connect 44 0 45 0;
#X connect 45 0 47 0;
#X connect 45 1 49 0;
#X connect 46 0 14 1;
#X connect 47 0 27 0;
#X connect 48 0 7 0;
#X connect 49 0 38 0;
#X connect 50 0 47 0;
#X connect 50 1 49 0;
#X restore 93 99 pd biquadCoof;
#X obj 82 241 pack 0 0 0 0 0;
#X obj 184 149 * -1;
#X obj 149 152 * -1;
#X obj 84 139 t b f;
#X obj 63 316 outlet~;
#X obj 63 274 biquad~;
#X obj 71 41 inlet~;
#X obj 125 39 inlet;
#X obj 169 39 inlet;
#X obj 218 37 inlet;
#X connect 0 0 4 0;
#X connect 0 1 1 3;
#X connect 0 2 1 4;
#X connect 0 3 3 0;
#X connect 0 4 2 0;
#X connect 1 0 6 0;
#X connect 2 0 1 1;
#X connect 3 0 1 0;
#X connect 4 0 1 0;
#X connect 4 1 1 2;
#X connect 6 0 5 0;
#X connect 7 0 6 0;
#X connect 8 0 0 0;
#X connect 9 0 0 1;
#X connect 10 0 0 2;
#X restore 296 369 pd eqband;
#N canvas 25 23 527 388 loeqband 1;
#X obj 82 241 pack 0 0 0 0 0;
#X obj 184 149 * -1;
#X obj 149 152 * -1;
#X obj 84 139 t b f;
#X obj 63 316 outlet~;
#X obj 63 274 biquad~;
#X obj 71 41 inlet~;
#X obj 125 39 inlet;
#X obj 169 39 inlet;
#X obj 218 37 inlet;
#N canvas 694 103 480 766 lobiquadCoof 0;
#N canvas 0 22 783 567 hz2rad 0;
#X obj 194 113 samplerate~;
#X obj 194 71 loadbang;
#X obj 194 185 atan;
#X msg 194 160 1;
#X text 382 53 w = 2 * pi * f / SR;
#X obj 194 207 * 8;
#X obj 194 137 t b a;
#X obj 194 230 / 44100;
#X text 260 232 2 * pi / SR;
#X obj 119 269 *;
#X obj 119 35 inlet;
#X obj 119 298 outlet;
#X text 175 300 w(rad);
#X text 167 35 freq(Hz);
#X connect 0 0 6 0;
#X connect 1 0 0 0;
#X connect 2 0 5 0;
#X connect 3 0 2 0;
#X connect 5 0 7 0;
#X connect 6 0 3 0;
#X connect 6 1 7 1;
#X connect 7 0 9 1;
#X connect 9 0 11 0;
#X connect 10 0 9 0;
#X restore 45 337 pd hz2rad;
#X obj 45 367 t f f;
#X obj 113 397 sin;
#X obj 45 397 cos;
#X obj 113 437 s \$0-wsin;
#X obj 45 437 s \$0-wcos;
#X obj 45 277 clip 20 20000;
#X obj 217 277 clip 0.1 100;
#X obj 142 307 r \$0-wsin;
#X obj 229 441 s \$0-alpha;
#X msg 217 307 1 \$1;
#X obj 217 337 /;
#X obj 202 367 *;
#X obj 202 397 * 0.5;
#X obj 26 507 f;
#X msg 26 537 1 \$1;
#X obj 26 567 /;
#X obj 26 657 *;
#X obj 88 657 *;
#X obj 150 657 *;
#X obj 212 658 *;
#X obj 275 658 *;
#X obj 211 72 t b f;
#X obj 26 52 inlet freq;
#X obj 211 52 inlet q;
#X obj 116 53 loadbang;
#X obj 26 182 t b a b;
#X obj 26 699 outlet b0;
#X obj 88 699 outlet b1;
#X obj 150 699 outlet b2;
#X obj 212 699 outlet a1;
#X obj 275 699 outlet a2;
#N canvas 601 52 421 370 b0 0;
#X obj 38 41 r \$0-wcos;
#X obj 38 309 outlet;
#X obj 53 110 - 1;
#X obj 38 163 *;
#X obj 83 157 + 1;
#X obj 112 41 r \$0-A;
#X obj 112 73 t f f f;
#X obj 38 279 *;
#X obj 38 191 +;
#X obj 53 132 * -1;
#X obj 38 247 +;
#X obj 53 222 r \$0-sqrtA-alpha-2;
#X connect 0 0 3 0;
#X connect 2 0 9 0;
#X connect 3 0 8 0;
#X connect 4 0 8 1;
#X connect 5 0 6 0;
#X connect 6 0 2 0;
#X connect 6 1 4 0;
#X connect 6 2 7 1;
#X connect 7 0 1 0;
#X connect 8 0 10 0;
#X connect 9 0 3 1;
#X connect 10 0 7 0;
#X connect 11 0 10 1;
#X restore 120 597 pd b0;
#N canvas 0 22 383 345 b1 0;
#X obj 55 287 outlet;
#X obj 55 45 r \$0-wcos;
#X obj 128 46 r \$0-A;
#X obj 87 177 - 1;
#X obj 70 125 + 1;
#X obj 55 175 *;
#X obj 128 78 t f f f;
#X obj 167 164 * 2;
#X obj 55 243 *;
#X obj 55 211 +;
#X obj 70 147 * -1;
#X connect 1 0 5 0;
#X connect 2 0 6 0;
#X connect 3 0 9 1;
#X connect 4 0 10 0;
#X connect 5 0 9 0;
#X connect 6 0 4 0;
#X connect 6 1 3 0;
#X connect 6 2 7 0;
#X connect 7 0 8 1;
#X connect 8 0 0 0;
#X connect 9 0 8 0;
#X connect 10 0 5 1;
#X restore 164 597 pd b1;
#N canvas 0 22 238 367 b2 0;
#X obj 38 41 r \$0-wcos;
#X obj 38 309 outlet;
#X obj 53 113 - 1;
#X obj 38 163 *;
#X obj 38 191 +;
#X obj 80 163 + 1;
#X obj 112 41 r \$0-A;
#X obj 38 247 -;
#X obj 112 73 t f f f;
#X obj 38 279 *;
#X obj 53 135 * -1;
#X obj 53 222 r \$0-sqrtA-alpha-2;
#X connect 0 0 3 0;
#X connect 2 0 10 0;
#X connect 3 0 4 0;
#X connect 4 0 7 0;
#X connect 5 0 4 1;
#X connect 6 0 8 0;
#X connect 7 0 9 0;
#X connect 8 0 2 0;
#X connect 8 1 5 0;
#X connect 8 2 9 1;
#X connect 9 0 1 0;
#X connect 10 0 3 1;
#X connect 11 0 7 1;
#X restore 208 597 pd b2;
#N canvas 0 22 368 357 a1 0;
#X obj 55 287 outlet;
#X obj 55 45 r \$0-wcos;
#X obj 128 46 r \$0-A;
#X obj 155 104 - 1;
#X obj 55 221 +;
#X obj 70 151 + 1;
#X obj 55 175 *;
#X obj 128 78 t f f;
#X obj 55 253 * -2;
#X connect 1 0 6 0;
#X connect 2 0 7 0;
#X connect 3 0 4 1;
#X connect 4 0 8 0;
#X connect 5 0 6 1;
#X connect 6 0 4 0;
#X connect 7 0 5 0;
#X connect 7 1 3 0;
#X connect 8 0 0 0;
#X restore 250 597 pd a1;
#N canvas 275 137 208 373 a2 0;
#X obj 38 41 r \$0-wcos;
#X obj 38 319 outlet;
#X obj 53 133 - 1;
#X obj 38 163 *;
#X obj 38 221 +;
#X obj 80 197 + 1;
#X obj 53 87 r \$0-A;
#X obj 53 109 t f f;
#X obj 38 287 -;
#X obj 53 253 r \$0-sqrtA-alpha-2;
#X connect 0 0 3 0;
#X connect 2 0 3 1;
#X connect 3 0 4 0;
#X connect 4 0 8 0;
#X connect 5 0 4 1;
#X connect 6 0 7 0;
#X connect 7 0 2 0;
#X connect 7 1 5 0;
#X connect 8 0 1 0;
#X connect 9 0 8 1;
#X restore 290 597 pd a2;
#X obj 315 277 clip -24 24;
#X obj 342 450 s \$0-A;
#X obj 315 307 / 40;
#X obj 315 337 t b f;
#X msg 315 367 10;
#X obj 315 397 pow 0;
#X obj 288 50 inlet dBGain;
#X obj 288 70 t b f;
#N canvas 44 48 285 374 a0 0;
#X obj 38 41 r \$0-wcos;
#X obj 38 319 outlet;
#X obj 53 133 - 1;
#X obj 38 163 *;
#X obj 38 221 +;
#X obj 80 197 + 1;
#X obj 53 87 r \$0-A;
#X obj 53 109 t f f;
#X obj 38 287 +;
#X obj 53 253 r \$0-sqrtA-alpha-2;
#X connect 0 0 3 0;
#X connect 2 0 3 1;
#X connect 3 0 4 0;
#X connect 4 0 8 0;
#X connect 5 0 4 1;
#X connect 6 0 7 0;
#X connect 7 0 2 0;
#X connect 7 1 5 0;
#X connect 8 0 1 0;
#X connect 9 0 8 1;
#X restore 41 480 pd a0;
#X obj 26 143 f \$1;
#X obj 217 240 f \$2;
#X obj 315 241 f \$3;
#X obj 116 75 t b b;
#X obj 217 477 sqrt;
#X obj 217 499 * 2;
#X obj 202 521 *;
#X obj 202 419 t f f;
#X obj 26 597 t f f f f f;
#X obj 315 419 t f f;
#X obj 202 543 s \$0-sqrtA-alpha-2;
#X connect 0 0 1 0;
#X connect 1 0 3 0;
#X connect 1 1 2 0;
#X connect 2 0 4 0;
#X connect 3 0 5 0;
#X connect 6 0 0 0;
#X connect 7 0 10 0;
#X connect 8 0 12 0;
#X connect 10 0 11 0;
#X connect 11 0 12 1;
#X connect 12 0 13 0;
#X connect 13 0 53 0;
#X connect 14 0 15 0;
#X connect 15 0 16 0;
#X connect 16 0 54 0;
#X connect 17 0 27 0;
#X connect 18 0 28 0;
#X connect 19 0 29 0;
#X connect 20 0 30 0;
#X connect 21 0 31 0;
#X connect 22 0 46 0;
#X connect 22 1 47 1;
#X connect 23 0 46 0;
#X connect 24 0 22 0;
#X connect 25 0 49 0;
#X connect 26 0 14 0;
#X connect 26 1 6 0;
#X connect 26 2 47 0;
#X connect 32 0 17 1;
#X connect 33 0 18 1;
#X connect 34 0 19 1;
#X connect 35 0 20 1;
#X connect 36 0 21 1;
#X connect 37 0 39 0;
#X connect 39 0 40 0;
#X connect 40 0 41 0;
#X connect 40 1 42 1;
#X connect 41 0 42 0;
#X connect 42 0 55 0;
#X connect 43 0 44 0;
#X connect 44 0 46 0;
#X connect 44 1 48 0;
#X connect 45 0 14 1;
#X connect 46 0 26 0;
#X connect 47 0 7 0;
#X connect 48 0 37 0;
#X connect 49 0 46 0;
#X connect 49 1 48 0;
#X connect 50 0 51 0;
#X connect 51 0 52 1;
#X connect 52 0 56 0;
#X connect 53 0 52 0;
#X connect 53 1 9 0;
#X connect 54 0 17 0;
#X connect 54 1 18 0;
#X connect 54 2 19 0;
#X connect 54 3 20 0;
#X connect 54 4 21 0;
#X connect 55 0 50 0;
#X connect 55 1 38 0;
#X restore 93 99 pd lobiquadCoof;
#X connect 0 0 5 0;
#X connect 1 0 0 1;
#X connect 2 0 0 0;
#X connect 3 0 0 0;
#X connect 3 1 0 2;
#X connect 5 0 4 0;
#X connect 6 0 5 0;
#X connect 7 0 10 0;
#X connect 8 0 10 1;
#X connect 9 0 10 2;
#X connect 10 0 3 0;
#X connect 10 1 0 3;
#X connect 10 2 0 4;
#X connect 10 3 2 0;
#X connect 10 4 1 0;
#X restore 41 372 pd loeqband;
#N canvas 619 23 527 388 hieqband 0;
#X obj 82 241 pack 0 0 0 0 0;
#X obj 184 149 * -1;
#X obj 149 152 * -1;
#X obj 84 139 t b f;
#X obj 63 316 outlet~;
#X obj 63 274 biquad~;
#X obj 71 41 inlet~;
#X obj 125 39 inlet;
#X obj 169 39 inlet;
#X obj 218 37 inlet;
#N canvas 895 101 480 766 lobiquadCoof 0;
#N canvas 0 22 783 567 hz2rad 0;
#X obj 194 113 samplerate~;
#X obj 194 71 loadbang;
#X obj 194 185 atan;
#X msg 194 160 1;
#X text 382 53 w = 2 * pi * f / SR;
#X obj 194 207 * 8;
#X obj 194 137 t b a;
#X obj 194 230 / 44100;
#X text 260 232 2 * pi / SR;
#X obj 119 269 *;
#X obj 119 35 inlet;
#X obj 119 298 outlet;
#X text 175 300 w(rad);
#X text 167 35 freq(Hz);
#X connect 0 0 6 0;
#X connect 1 0 0 0;
#X connect 2 0 5 0;
#X connect 3 0 2 0;
#X connect 5 0 7 0;
#X connect 6 0 3 0;
#X connect 6 1 7 1;
#X connect 7 0 9 1;
#X connect 9 0 11 0;
#X connect 10 0 9 0;
#X restore 45 327 pd hz2rad;
#X obj 45 357 t f f;
#X obj 113 387 sin;
#X obj 45 387 cos;
#X obj 113 427 s \$0-wsin;
#X obj 45 427 s \$0-wcos;
#X obj 45 267 clip 20 20000;
#X obj 217 267 clip 0.1 100;
#X obj 142 297 r \$0-wsin;
#X obj 229 431 s \$0-alpha;
#X msg 217 297 1 \$1;
#X obj 217 327 /;
#X obj 202 357 *;
#X obj 202 387 * 0.5;
#X obj 26 497 f;
#X msg 26 527 1 \$1;
#X obj 26 557 /;
#X obj 26 647 *;
#X obj 88 647 *;
#X obj 150 647 *;
#X obj 212 648 *;
#X obj 275 648 *;
#X obj 211 62 t b f;
#X obj 26 42 inlet freq;
#X obj 211 42 inlet q;
#X obj 116 43 loadbang;
#X obj 26 172 t b a b;
#X obj 26 689 outlet b0;
#X obj 88 689 outlet b1;
#X obj 150 689 outlet b2;
#X obj 212 689 outlet a1;
#X obj 275 689 outlet a2;
#N canvas 601 52 421 370 b0 0;
#X obj 38 41 r \$0-wcos;
#X obj 38 309 outlet;
#X obj 53 110 - 1;
#X obj 38 163 *;
#X obj 83 157 + 1;
#X obj 112 41 r \$0-A;
#X obj 112 73 t f f f;
#X obj 38 279 *;
#X obj 38 191 +;
#X obj 38 247 +;
#X obj 53 222 r \$0-sqrtA-alpha-2;
#X connect 0 0 3 0;
#X connect 2 0 3 1;
#X connect 3 0 8 0;
#X connect 4 0 8 1;
#X connect 5 0 6 0;
#X connect 6 0 2 0;
#X connect 6 1 4 0;
#X connect 6 2 7 1;
#X connect 7 0 1 0;
#X connect 8 0 9 0;
#X connect 9 0 7 0;
#X connect 10 0 9 1;
#X restore 120 587 pd b0;
#N canvas 0 22 383 345 b1 0;
#X obj 55 287 outlet;
#X obj 55 45 r \$0-wcos;
#X obj 128 46 r \$0-A;
#X obj 87 177 - 1;
#X obj 70 125 + 1;
#X obj 55 175 *;
#X obj 128 78 t f f f;
#X obj 55 243 *;
#X obj 55 211 +;
#X obj 167 164 * -2;
#X connect 1 0 5 0;
#X connect 2 0 6 0;
#X connect 3 0 8 1;
#X connect 4 0 5 1;
#X connect 5 0 8 0;
#X connect 6 0 4 0;
#X connect 6 1 3 0;
#X connect 6 2 9 0;
#X connect 7 0 0 0;
#X connect 8 0 7 0;
#X connect 9 0 7 1;
#X restore 164 587 pd b1;
#N canvas 0 22 238 367 b2 0;
#X obj 38 41 r \$0-wcos;
#X obj 38 309 outlet;
#X obj 53 113 - 1;
#X obj 38 163 *;
#X obj 38 191 +;
#X obj 80 163 + 1;
#X obj 112 41 r \$0-A;
#X obj 38 247 -;
#X obj 112 73 t f f f;
#X obj 38 279 *;
#X obj 53 222 r \$0-sqrtA-alpha-2;
#X connect 0 0 3 0;
#X connect 2 0 3 1;
#X connect 3 0 4 0;
#X connect 4 0 7 0;
#X connect 5 0 4 1;
#X connect 6 0 8 0;
#X connect 7 0 9 0;
#X connect 8 0 2 0;
#X connect 8 1 5 0;
#X connect 8 2 9 1;
#X connect 9 0 1 0;
#X connect 10 0 7 1;
#X restore 208 587 pd b2;
#N canvas 0 22 368 357 a1 0;
#X obj 55 287 outlet;
#X obj 55 45 r \$0-wcos;
#X obj 128 46 r \$0-A;
#X obj 155 104 - 1;
#X obj 55 221 +;
#X obj 70 121 + 1;
#X obj 55 175 *;
#X obj 128 78 t f f;
#X obj 55 253 * 2;
#X obj 70 143 * -1;
#X connect 1 0 6 0;
#X connect 2 0 7 0;
#X connect 3 0 4 1;
#X connect 4 0 8 0;
#X connect 5 0 9 0;
#X connect 6 0 4 0;
#X connect 7 0 5 0;
#X connect 7 1 3 0;
#X connect 8 0 0 0;
#X connect 9 0 6 1;
#X restore 250 587 pd a1;
#N canvas 275 137 208 373 a2 0;
#X obj 38 41 r \$0-wcos;
#X obj 38 319 outlet;
#X obj 53 133 - 1;
#X obj 38 183 *;
#X obj 38 221 +;
#X obj 80 197 + 1;
#X obj 53 87 r \$0-A;
#X obj 53 109 t f f;
#X obj 38 287 -;
#X obj 53 155 * -1;
#X obj 53 253 r \$0-sqrtA-alpha-2;
#X connect 0 0 3 0;
#X connect 2 0 9 0;
#X connect 3 0 4 0;
#X connect 4 0 8 0;
#X connect 5 0 4 1;
#X connect 6 0 7 0;
#X connect 7 0 2 0;
#X connect 7 1 5 0;
#X connect 8 0 1 0;
#X connect 9 0 3 1;
#X connect 10 0 8 1;
#X restore 290 587 pd a2;
#X obj 315 267 clip -24 24;
#X obj 342 440 s \$0-A;
#X obj 315 297 / 40;
#X obj 315 327 t b f;
#X msg 315 357 10;
#X obj 315 387 pow 0;
#X obj 288 40 inlet dBGain;
#X obj 288 60 t b f;
#N canvas 44 48 285 374 a0 0;
#X obj 38 41 r \$0-wcos;
#X obj 38 319 outlet;
#X obj 53 133 - 1;
#X obj 38 193 *;
#X obj 38 221 +;
#X obj 80 197 + 1;
#X obj 53 87 r \$0-A;
#X obj 53 109 t f f;
#X obj 38 287 +;
#X obj 53 157 * -1;
#X obj 53 253 r \$0-sqrtA-alpha-2;
#X connect 0 0 3 0;
#X connect 2 0 9 0;
#X connect 3 0 4 0;
#X connect 4 0 8 0;
#X connect 5 0 4 1;
#X connect 6 0 7 0;
#X connect 7 0 2 0;
#X connect 7 1 5 0;
#X connect 8 0 1 0;
#X connect 9 0 3 1;
#X connect 10 0 8 1;
#X restore 41 470 pd a0;
#X obj 26 133 f \$1;
#X obj 217 230 f \$2;
#X obj 315 231 f \$3;
#X obj 116 65 t b b;
#X obj 217 467 sqrt;
#X obj 217 489 * 2;
#X obj 202 511 *;
#X obj 202 409 t f f;
#X obj 26 587 t f f f f f;
#X obj 315 409 t f f;
#X obj 202 533 s \$0-sqrtA-alpha-2;
#X connect 0 0 1 0;
#X connect 1 0 3 0;
#X connect 1 1 2 0;
#X connect 2 0 4 0;
#X connect 3 0 5 0;
#X connect 6 0 0 0;
#X connect 7 0 10 0;
#X connect 8 0 12 0;
#X connect 10 0 11 0;
#X connect 11 0 12 1;
#X connect 12 0 13 0;
#X connect 13 0 53 0;
#X connect 14 0 15 0;
#X connect 15 0 16 0;
#X connect 16 0 54 0;
#X connect 17 0 27 0;
#X connect 18 0 28 0;
#X connect 19 0 29 0;
#X connect 20 0 30 0;
#X connect 21 0 31 0;
#X connect 22 0 46 0;
#X connect 22 1 47 1;
#X connect 23 0 46 0;
#X connect 24 0 22 0;
#X connect 25 0 49 0;
#X connect 26 0 14 0;
#X connect 26 1 6 0;
#X connect 26 2 47 0;
#X connect 32 0 17 1;
#X connect 33 0 18 1;
#X connect 34 0 19 1;
#X connect 35 0 20 1;
#X connect 36 0 21 1;
#X connect 37 0 39 0;
#X connect 39 0 40 0;
#X connect 40 0 41 0;
#X connect 40 1 42 1;
#X connect 41 0 42 0;
#X connect 42 0 55 0;
#X connect 43 0 44 0;
#X connect 44 0 46 0;
#X connect 44 1 48 0;
#X connect 45 0 14 1;
#X connect 46 0 26 0;
#X connect 47 0 7 0;
#X connect 48 0 37 0;
#X connect 49 0 46 0;
#X connect 49 1 48 0;
#X connect 50 0 51 0;
#X connect 51 0 52 1;
#X connect 52 0 56 0;
#X connect 53 0 52 0;
#X connect 53 1 9 0;
#X connect 54 0 17 0;
#X connect 54 1 18 0;
#X connect 54 2 19 0;
#X connect 54 3 20 0;
#X connect 54 4 21 0;
#X connect 55 0 50 0;
#X connect 55 1 38 0;
#X restore 93 99 pd lobiquadCoof;
#X connect 0 0 5 0;
#X connect 1 0 0 1;
#X connect 2 0 0 0;
#X connect 3 0 0 0;
#X connect 3 1 0 2;
#X connect 5 0 4 0;
#X connect 6 0 5 0;
#X connect 7 0 10 0;
#X connect 8 0 10 1;
#X connect 9 0 10 2;
#X connect 10 0 3 0;
#X connect 10 1 0 3;
#X connect 10 2 0 4;
#X connect 10 3 2 0;
#X connect 10 4 1 0;
#X restore 382 368 pd hieqband;
#X text 472 364 USE AT YOUR OWN RISK (IT"S MONO!!!!);
#X obj 67 183 vsl 15 128 20 20000 0 0 empty empty empty 0 -9 0 10 -262144
-1 -1 100 1;
#X obj 85 183 vsl 15 128 0.1 100 0 0 empty empty empty 0 -9 0 10 -262144
-1 -1 0 1;
#X obj 104 183 vsl 15 128 -24 24 0 1 empty empty empty 0 -9 0 10 -262144
-1 -1 0 1;
#X text 66 157 F;
#X text 87 157 Q;
#X text 102 156 Gain;
#X obj 138 184 vsl 15 128 20 20000 0 0 empty empty empty 0 -9 0 10
-262144 -1 -1 5100 1;
#X obj 156 184 vsl 15 128 0.1 100 0 0 empty empty empty 0 -9 0 10 -262144
-1 -1 100 1;
#X obj 175 184 vsl 15 128 -24 24 0 1 empty empty empty 0 -9 0 10 -262144
-1 -1 0 1;
#X text 137 158 F;
#X text 158 158 Q;
#X text 173 157 Gain;
#X obj 225 184 vsl 15 128 20 20000 0 0 empty empty empty 0 -9 0 10
-262144 -1 -1 1500 1;
#X obj 243 184 vsl 15 128 0.1 100 0 0 empty empty empty 0 -9 0 10 -262144
-1 -1 0 1;
#X obj 262 184 vsl 15 128 -24 24 0 1 empty empty empty 0 -9 0 10 -262144
-1 -1 9700 1;
#X text 224 158 F;
#X text 245 158 Q;
#X text 260 157 Gain;
#X obj 310 183 vsl 15 128 20 20000 0 0 empty empty empty 0 -9 0 10
-262144 -1 -1 7200 1;
#X obj 328 183 vsl 15 128 0.1 100 0 0 empty empty empty 0 -9 0 10 -262144
-1 -1 0 1;
#X obj 347 183 vsl 15 128 -24 24 0 1 empty empty empty 0 -9 0 10 -262144
-1 -1 0 1;
#X text 309 157 F;
#X text 330 157 Q;
#X text 345 156 Gain;
#X obj 403 183 vsl 15 128 20 20000 0 0 empty empty empty 0 -9 0 10
-262144 -1 -1 10500 1;
#X obj 421 183 vsl 15 128 0.1 100 0 0 empty empty empty 0 -9 0 10 -262144
-1 -1 0 1;
#X obj 440 183 vsl 15 128 -24 24 0 1 empty empty empty 0 -9 0 10 -262144
-1 -1 0 1;
#X text 402 157 F;
#X text 423 157 Q;
#X text 438 156 Gain;
#N canvas 25 23 450 300 placeholder~ 0;
#X obj 103 86 noise~;
#X obj 103 165 *~;
#X obj 153 134 line~;
#X msg 153 83 \$1 10;
#X obj 153 50 inlet;
#X obj 97 226 outlet~;
#X connect 0 0 1 0;
#X connect 1 0 5 0;
#X connect 2 0 1 1;
#X connect 3 0 2 0;
#X connect 4 0 3 0;
#X restore 46 88 pd placeholder~;
#X obj 47 118 s~ eq\$0;
#X obj 41 327 r~ eq\$0;
#X obj 29 33 tgl 15 0 empty empty empty 17 7 0 10 -262144 -1 -1 1 1
;
#X text 254 67 Worst EQ EVER!!!!;
#X connect 0 0 1 0;
#X connect 0 0 1 1;
#X connect 2 0 3 0;
#X connect 3 0 4 0;
#X connect 4 0 6 0;
#X connect 5 0 2 0;
#X connect 6 0 0 0;
#X connect 8 0 5 1;
#X connect 9 0 5 2;
#X connect 10 0 5 3;
#X connect 14 0 2 1;
#X connect 15 0 2 2;
#X connect 16 0 2 3;
#X connect 20 0 3 1;
#X connect 21 0 3 2;
#X connect 22 0 3 3;
#X connect 26 0 4 1;
#X connect 27 0 4 2;
#X connect 28 0 4 3;
#X connect 32 0 6 1;
#X connect 33 0 6 2;
#X connect 34 0 6 3;
#X connect 38 0 39 0;
#X connect 40 0 5 0;
#X connect 41 0 38 0;
