#N canvas 146 183 583 501 10;
#N canvas 485 101 684 557 adsrAmpEnv 1;
#X obj 131 79 inlet~;
#X obj 138 352 outlet~;
#X obj 278 77 inlet;
#X obj 344 76 inlet;
#X obj 432 75 inlet;
#X obj 516 74 inlet;
#X obj 199 33 inlet;
#X obj 200 70 select 1 0;
#X text 270 52 atktime;
#X text 335 50 decyTime;
#X text 419 49 suslevel;
#X text 507 48 relTime;
#X obj 138 299 *~;
#X obj 161 274 vline~;
#X msg 161 235 0 \, 1 \$1 0 \, \$3 \$2 \$1;
#X msg 355 236 0 \$1;
#X obj 280 182 pack 0 0 1;
#X obj 413 174 f 10;
#X obj 280 149 f 10;
#X obj 399 112 clip 0 1;
#X connect 0 0 12 0;
#X connect 2 0 18 1;
#X connect 3 0 16 1;
#X connect 4 0 19 0;
#X connect 5 0 17 1;
#X connect 6 0 7 0;
#X connect 7 0 18 0;
#X connect 7 1 17 0;
#X connect 12 0 1 0;
#X connect 13 0 12 1;
#X connect 14 0 13 0;
#X connect 15 0 13 0;
#X connect 16 0 14 0;
#X connect 17 0 15 0;
#X connect 18 0 16 0;
#X connect 19 0 16 2;
#X restore 19 174 pd adsrAmpEnv;
#X obj 18 24 osc~ 440;
#X obj 25 275 dac~;
#X obj 23 237 *~ 0.5;
#X obj 36 48 tgl 15 0 empty empty empty 17 7 0 10 -262144 -1 -1 0 1
;
#X floatatom 49 75 5 0 0 0 - - -;
#X floatatom 61 102 5 0 0 0 - - -;
#X floatatom 76 127 5 0 0 0 - - -;
#X floatatom 92 148 5 0 0 0 - - -;
#X connect 0 0 3 0;
#X connect 1 0 0 0;
#X connect 3 0 2 0;
#X connect 4 0 0 1;
#X connect 5 0 0 2;
#X connect 6 0 0 3;
#X connect 7 0 0 4;
#X connect 8 0 0 5;
