#N canvas 25 23 450 300 10;
#X obj 44 72 sigmund~;
#X obj 46 33 osc~ 440;
#X obj 42 122 mtof;
#X floatatom 39 153 5 0 0 0 - - -;
#X obj 121 33 adc~;
#X text 163 34 attempt mic input with headphones;
#X connect 0 0 2 0;
#X connect 1 0 0 0;
#X connect 2 0 3 0;
