#N canvas 539 85 396 322 10;
#N canvas 183 311 450 300 onsetDetection 0;
#X obj 40 43 inlet~;
#X obj 38 195 outlet;
#X obj 39 74 env~ 1024;
#X obj 39 127 change;
#X obj 39 103 > 60;
#X obj 38 164 select 1;
#X obj 131 39 inlet;
#X connect 0 0 2 0;
#X connect 2 0 4 0;
#X connect 3 0 5 0;
#X connect 4 0 3 0;
#X connect 5 0 1 0;
#X connect 6 0 4 1;
#X restore 22 129 pd onsetDetection;
#X obj 20 164 bng 15 250 50 0 empty empty empty 17 7 0 10 -262144 -1
-1;
#X floatatom 120 101 5 0 0 0 - - -;
#X text 160 97 db amplitude trigger;
#N canvas 143 151 450 300 placeholder~ 0;
#X obj 89 40 inlet;
#X msg 89 61 1 \, 0 10;
#X obj 90 96 line~;
#X obj 80 140 *~;
#X obj 38 91 osc~ 440;
#X obj 82 193 outlet~;
#X connect 0 0 1 0;
#X connect 1 0 2 0;
#X connect 2 0 3 1;
#X connect 3 0 5 0;
#X connect 4 0 3 0;
#X restore 20 70 pd placeholder~;
#X obj 22 24 bng 15 250 50 0 empty empty empty 17 7 0 10 -262144 -1
-1;
#X text 120 71 generates sound;
#X text 132 127 detects events;
#X connect 0 0 1 0;
#X connect 2 0 0 1;
#X connect 4 0 0 0;
#X connect 5 0 4 0;
