#N canvas 88 187 899 689 10;
#X obj 241 40 bng 15 250 50 0 empty empty empty 17 7 0 10 -262144 -1
-1;
#N canvas 902 315 450 300 loadPlaySoundMono 0;
#X obj 303 209 table soundfile\$0;
#X obj 44 20 inlet;
#X obj 229 20 inlet;
#X obj 229 85 openpanel;
#X obj 228 138 pack s \$0;
#X obj 228 210 soundfiler;
#X obj 229 54 route bang;
#X obj 45 90 tabplay~ soundfile\$0;
#X obj 45 175 outlet~;
#X msg 226 174 read -resize \$1 soundfile\$2;
#X connect 1 0 7 0;
#X connect 2 0 6 0;
#X connect 3 0 4 0;
#X connect 4 0 9 0;
#X connect 6 0 3 0;
#X connect 6 1 4 0;
#X connect 7 0 8 0;
#X connect 9 0 5 0;
#X restore 120 74 pd loadPlaySoundMono;
#X obj 120 46 bng 15 250 50 0 empty empty empty 17 7 0 10 -262144 -1
-1;
#X obj 154 574 dac~;
#X text 120 19 play sound;
#X text 270 39 load a sound;
#X obj 260 140 bng 15 250 50 0 empty empty empty 17 7 0 10 -262144
-1 -1;
#X obj 260 197 t f f;
#X obj 245 281 pack;
#X text 302 204 this expr sets vocoder band freq;
#X obj 159 383 clone vocoderChannel 32;
#N canvas 842 194 450 300 range32 0;
#X obj 138 53 inlet;
#X obj 108 247 outlet;
#X obj 137 89 until;
#X obj 202 194 select 0;
#X obj 148 147 + 1;
#X obj 138 115 f 0;
#X obj 143 176 % 32;
#X connect 0 0 2 0;
#X connect 2 0 5 0;
#X connect 3 0 2 1;
#X connect 4 0 6 0;
#X connect 5 0 1 0;
#X connect 5 0 4 0;
#X connect 6 0 3 0;
#X connect 6 0 5 1;
#X restore 260 168 pd range32;
#X obj 157 464 *~ 1;
#X floatatom 187 434 5 0 0 0 - - -;
#X obj 100 444 *~ 0.1;
#X obj 260 111 loadbang;
#X obj 491 252 pack 0 100;
#X obj 100 415 hip~ 3000;
#N canvas 25 23 450 300 carrier 0;
#X obj 128 156 +~;
#X obj 285 52 noise~;
#X obj 197 52 phasor~ 275;
#X obj 244 115 *~ 0.05;
#X obj 25 55 phasor~ 110;
#X obj 103 55 phasor~ 220;
#X obj 131 217 outlet~;
#X connect 0 0 6 0;
#X connect 1 0 3 0;
#X connect 2 0 0 0;
#X connect 3 0 0 0;
#X connect 4 0 0 0;
#X connect 5 0 0 0;
#X restore 53 280 pd carrier;
#X obj 296 226 expr $f1*130+200;
#X text 224 432 you mayhave to turn way up;
#X text 488 233 this sets vocoder bandwidth;
#X text 210 357 modulator in;
#X connect 0 0 1 1;
#X connect 1 0 10 1;
#X connect 1 0 17 0;
#X connect 2 0 1 0;
#X connect 6 0 11 0;
#X connect 7 0 8 0;
#X connect 7 1 19 0;
#X connect 8 0 10 2;
#X connect 10 0 12 0;
#X connect 11 0 7 0;
#X connect 11 0 16 0;
#X connect 12 0 3 0;
#X connect 12 0 3 1;
#X connect 13 0 12 1;
#X connect 14 0 3 0;
#X connect 14 0 3 1;
#X connect 15 0 6 0;
#X connect 16 0 10 3;
#X connect 17 0 14 0;
#X connect 18 0 10 0;
#X connect 19 0 8 1;
