#N canvas 347 152 592 548 10;
#X obj 43 60 inlet~;
#X obj 134 59 inlet~;
#X text 40 30 carrier;
#X text 129 31 modulator;
#X obj 135 124 bp~ 300 1;
#X obj 237 55 inlet;
#X text 218 33 band frequency;
#X text 346 35 bandwidth;
#X obj 345 63 inlet;
#X obj 134 263 line~;
#X obj 43 124 bp~ 300 1;
#X obj 44 294 *~;
#X obj 41 354 outlet~;
#X obj 135 186 dbtorms;
#X obj 135 160 env~ 16;
#X msg 137 225 \$1 20;
#X connect 0 0 10 0;
#X connect 1 0 4 0;
#X connect 4 0 14 0;
#X connect 5 0 10 1;
#X connect 5 0 4 1;
#X connect 8 0 4 2;
#X connect 8 0 10 2;
#X connect 9 0 11 1;
#X connect 10 0 11 0;
#X connect 11 0 12 0;
#X connect 13 0 15 0;
#X connect 14 0 13 0;
#X connect 15 0 9 0;
