#N canvas 600 135 473 503 10;
#N canvas 117 303 925 528 envManFilter~ 0;
#X obj 35 26 inlet~;
#X obj 86 372 outlet~;
#X obj 62 295 vline~;
#X obj 45 328 vcf~ 10;
#X obj 154 183 inlet;
#X obj 115 182 inlet;
#X obj 199 181 inlet;
#X obj 64 222 pack b 0 0 0 0;
#X obj 243 182 inlet;
#X msg 64 263 \$2 0 \, \$3 \$4 0 \, \$2 \$5 \$4;
#X obj 58 88 env~ 1024;
#X obj 58 141 change;
#X obj 58 117 > 60;
#X obj 57 178 select 1;
#X obj 104 23 inlet;
#X obj 336 307 outlet;
#X connect 0 0 3 0;
#X connect 0 0 10 0;
#X connect 2 0 3 1;
#X connect 3 1 1 0;
#X connect 4 0 7 2;
#X connect 5 0 7 1;
#X connect 6 0 7 3;
#X connect 7 0 9 0;
#X connect 8 0 7 4;
#X connect 9 0 2 0;
#X connect 10 0 12 0;
#X connect 11 0 13 0;
#X connect 11 0 15 0;
#X connect 12 0 11 0;
#X connect 13 0 7 0;
#X connect 14 0 12 1;
#X restore 55 250 pd envManFilter~;
#X obj 69 401 dac~;
#X floatatom 97 137 5 0 0 0 - - -;
#X floatatom 108 160 5 0 0 0 - - -;
#X floatatom 130 183 5 0 0 0 - - -;
#X floatatom 150 206 5 0 0 0 - - -;
#N canvas 25 23 450 300 placeholder~ 0;
#X obj 66 80 noise~;
#X obj 123 30 inlet;
#X obj 71 201 *~;
#X obj 77 265 outlet~;
#X obj 119 152 vline~;
#X msg 126 103 0 \, 1 10 0 \, 0 100 10;
#X connect 0 0 2 0;
#X connect 1 0 5 0;
#X connect 2 0 3 0;
#X connect 4 0 2 1;
#X connect 5 0 4 0;
#X restore 65 95 pd placeholder~;
#X text 140 136 frequency 1;
#X text 151 160 frequency 2;
#X text 164 181 attack time;
#X text 199 203 decay time;
#X obj 77 65 bng 15 250 50 0 empty empty empty 17 7 0 10 -262144 -1
-1;
#X floatatom 76 116 5 0 0 0 - - -;
#X obj 168 309 print;
#X obj 60 329 *~ 1;
#X text 112 113 decibel threshold level;
#X connect 0 0 14 0;
#X connect 0 1 13 0;
#X connect 2 0 0 2;
#X connect 3 0 0 3;
#X connect 4 0 0 4;
#X connect 5 0 0 5;
#X connect 6 0 0 0;
#X connect 11 0 6 0;
#X connect 12 0 0 1;
#X connect 14 0 1 0;
#X connect 14 0 1 1;
