#N canvas 371 313 597 565 10;
#N canvas 574 200 576 384 envManFilter~ 0;
#X obj 120 58 inlet~;
#X obj 204 245 outlet~;
#X obj 188 174 vline~;
#X obj 195 31 inlet;
#X obj 171 207 vcf~ 10;
#X obj 277 31 inlet;
#X obj 238 30 inlet;
#X obj 323 33 inlet;
#X obj 236 105 pack b 0 0 0 0;
#X obj 367 34 inlet;
#X msg 190 142 \$2 0 \, \$3 \$4 0 \, \$2 \$5 \$4;
#X connect 0 0 4 0;
#X connect 2 0 4 1;
#X connect 3 0 8 0;
#X connect 4 1 1 0;
#X connect 5 0 8 2;
#X connect 6 0 8 1;
#X connect 7 0 8 3;
#X connect 8 0 10 0;
#X connect 9 0 8 4;
#X connect 10 0 2 0;
#X restore 55 250 pd envManFilter~;
#X obj 73 159 bng 15 250 50 0 empty empty empty 17 7 0 10 -262144 -1
-1;
#X obj 60 329 *~ 0.3;
#X obj 69 401 dac~;
#X floatatom 97 137 5 0 0 0 - - -;
#X floatatom 108 160 5 0 0 0 - - -;
#X floatatom 130 183 5 0 0 0 - - -;
#X floatatom 150 206 5 0 0 0 - - -;
#N canvas 25 23 450 300 placeholder~ 0;
#X obj 66 80 noise~;
#X obj 123 30 inlet;
#X obj 119 152 line~;
#X msg 126 103 \$1 10;
#X obj 71 201 *~;
#X obj 77 265 outlet~;
#X connect 0 0 4 0;
#X connect 1 0 3 0;
#X connect 2 0 4 1;
#X connect 3 0 2 0;
#X connect 4 0 5 0;
#X restore 52 83 pd placeholder~;
#X obj 54 31 tgl 15 0 empty empty empty 17 7 0 10 -262144 -1 -1 1 1
;
#X text 140 136 frequency 1;
#X text 151 160 frequency 2;
#X text 164 181 attack time;
#X text 199 203 decay time;
#X connect 0 0 2 0;
#X connect 1 0 0 1;
#X connect 2 0 3 0;
#X connect 2 0 3 1;
#X connect 4 0 0 2;
#X connect 5 0 0 3;
#X connect 6 0 0 4;
#X connect 7 0 0 5;
#X connect 8 0 0 0;
#X connect 9 0 8 0;
