#N canvas 682 77 670 798 10;
#X obj 122 48 inlet;
#X obj 121 99 unpack;
#X obj 154 133 select 0;
#X obj 199 163 / 127;
#X obj 151 299 line~;
#X obj 115 342 mtof;
#X obj 117 563 *~;
#X obj 120 599 outlet~;
#X msg 199 221 \$1 5;
#X msg 155 225 0 100;
#X obj 203 195 pow 2;
#X obj 363 487 vline~;
#X msg 356 448 200 \, 1000 100 0 \, 500 50 100;
#X obj 85 540 vcf~ 10;
#X obj 89 460 phasor~;
#X connect 0 0 1 0;
#X connect 1 0 5 0;
#X connect 1 1 2 0;
#X connect 2 0 9 0;
#X connect 2 1 3 0;
#X connect 2 1 12 0;
#X connect 3 0 10 0;
#X connect 4 0 6 1;
#X connect 5 0 14 0;
#X connect 6 0 7 0;
#X connect 8 0 4 0;
#X connect 9 0 4 0;
#X connect 10 0 8 0;
#X connect 11 0 13 1;
#X connect 12 0 11 0;
#X connect 13 1 6 0;
#X connect 14 0 13 0;
